<svg width="34" height="33" viewBox="0 0 34 33" fill="none" xmlns="http://www.w3.org/2000/svg">
<path d="M17.0255 3.23841C24.5138 3.23841 30.5992 9.3238 30.5992 16.8121C30.5992 24.3004 24.5138 30.3858 17.0255 30.3858C9.53717 30.3858 3.45179 24.3004 3.45179 16.8121C3.45179 9.3238 9.53717 3.23841 17.0255 3.23841ZM17.0255 0.669434C8.10693 0.678543 0.882812 7.90266 0.882812 16.8121C0.882812 25.7215 8.10693 32.9548 17.0255 32.9548C25.944 32.9548 33.1681 25.7306 33.1681 16.8121C33.1681 7.89355 25.9349 0.678543 17.0255 0.678543V0.669434Z" fill="#EFEFEF"/>
<path d="M18.984 32.8182V20.3559H22.5004L22.965 15.965H18.984V13.7695C18.984 12.6217 19.1024 12.0113 20.7422 12.0113H22.9377V7.62036H19.4213C15.2034 7.62036 13.7094 9.75207 13.7094 13.3322V15.965H11.0767V20.3559H13.7094V32.6451C14.7388 32.8455 15.7956 32.9549 16.8796 32.9549C17.5811 32.9549 18.2826 32.9093 18.9749 32.8182H18.984Z" fill="#EFEFEF"/>
</svg>
