<svg width="33" height="33" viewBox="0 0 33 33" fill="none" xmlns="http://www.w3.org/2000/svg">
<path d="M11.2812 16.8121C11.2812 13.8423 13.6862 11.4282 16.656 11.4282C19.6258 11.4282 22.0399 13.8332 22.0399 16.8121C22.0399 19.791 19.6349 22.196 16.656 22.196C13.6771 22.196 11.2812 19.791 11.2812 16.8121ZM8.37516 16.8121C8.37516 21.3852 12.0829 25.1021 16.6651 25.1021C21.2474 25.1021 24.9551 21.3944 24.9551 16.8121C24.9551 12.2298 21.2474 8.52213 16.6651 8.52213C12.0829 8.52213 8.37516 12.2298 8.37516 16.8121ZM23.3426 8.19417C23.3426 9.26003 24.2081 10.1346 25.283 10.1346C26.358 10.1346 27.2234 9.26914 27.2234 8.19417C27.2234 7.11921 26.358 6.25378 25.283 6.25378C24.2081 6.25378 23.3426 7.11921 23.3426 8.19417ZM10.1425 29.9485C8.56646 29.8756 7.71014 29.6114 7.14533 29.3928C6.38921 29.1013 5.85173 28.746 5.28691 28.1812C4.7221 27.6164 4.37593 27.0789 4.0753 26.3228C3.85667 25.758 3.59248 24.9016 3.5196 23.3256C3.43761 21.6221 3.4285 21.1119 3.4285 16.803C3.4285 12.494 3.44672 11.9839 3.5196 10.2803C3.59248 8.70433 3.85667 7.85711 4.0753 7.28319C4.36682 6.52707 4.7221 5.98959 5.28691 5.42478C5.85173 4.85997 6.38921 4.51379 7.14533 4.21317C7.71014 3.99453 8.56646 3.73035 10.1425 3.65747C11.846 3.57548 12.3562 3.56637 16.6651 3.56637C20.9741 3.56637 21.4842 3.58459 23.1878 3.65747C24.7638 3.73035 25.611 3.99453 26.1849 4.21317C26.941 4.50468 27.4785 4.85997 28.0433 5.42478C28.6081 5.98959 28.9543 6.52707 29.2549 7.28319C29.4736 7.848 29.7378 8.70433 29.8106 10.2803C29.8926 11.9839 29.9017 12.494 29.9017 16.803C29.9017 21.1119 29.8835 21.6221 29.8106 23.3256C29.7378 24.9016 29.4736 25.758 29.2549 26.3228C28.9634 27.0789 28.6081 27.6164 28.0433 28.1812C27.4785 28.746 26.941 29.0922 26.1849 29.3928C25.6201 29.6114 24.7638 29.8756 23.1878 29.9485C21.4842 30.0305 20.9741 30.0396 16.6651 30.0396C12.3562 30.0396 11.846 30.0214 10.1425 29.9485ZM10.0058 0.769642C8.28406 0.851631 7.11799 1.11582 6.08858 1.51665C5.03184 1.92659 4.12996 2.48229 3.22809 3.37506C2.33532 4.26783 1.77962 5.1697 1.36968 6.23555C0.968844 7.26497 0.695545 8.43103 0.622666 10.1528C0.540678 11.8746 0.522461 12.4211 0.522461 16.803C0.522461 21.1848 0.540678 21.7405 0.622666 23.4532C0.704655 25.1749 0.968844 26.341 1.36968 27.3704C1.77962 28.4272 2.33532 29.329 3.22809 30.2309C4.12085 31.1237 5.02273 31.6794 6.08858 32.0893C7.11799 32.4902 8.28406 32.7635 10.0058 32.8363C11.7276 32.9183 12.2742 32.9365 16.656 32.9365C21.0379 32.9365 21.5936 32.9183 23.3062 32.8363C25.028 32.7543 26.194 32.4902 27.2234 32.0893C28.2802 31.6794 29.1821 31.1237 30.0839 30.2309C30.9767 29.3381 31.5324 28.4363 31.9424 27.3704C32.3432 26.341 32.6165 25.1749 32.6894 23.4532C32.7714 21.7314 32.7896 21.1848 32.7896 16.803C32.7896 12.4211 32.7714 11.8654 32.6894 10.1528C32.6074 8.43103 32.3432 7.26497 31.9424 6.23555C31.5324 5.17881 30.9767 4.27694 30.0839 3.37506C29.1912 2.48229 28.2893 1.92659 27.2234 1.51665C26.194 1.11582 25.0189 0.842521 23.3062 0.769642C21.5844 0.687653 21.0379 0.669434 16.656 0.669434C12.2742 0.669434 11.7185 0.687653 9.99671 0.769642" fill="#EFEFEF"/>
</svg>
