<svg width="41" height="41" viewBox="0 0 41 41" fill="none" xmlns="http://www.w3.org/2000/svg">
<path d="M20.1313 0C31.4075 0.0832899 40.1625 8.93445 40.2843 19.9095C40.406 31.0896 31.5709 40.2322 20.1633 40.2579C8.95123 40.2803 0.0968737 31.2818 0.000769972 20.3131C-0.0953338 9.08821 8.81669 0.0896968 20.1313 0ZM36.7284 20.1498C36.7284 10.959 29.3573 3.57186 20.1729 3.55904C10.9406 3.54943 3.54059 10.9014 3.52778 20.0985C3.51496 29.2732 10.9406 36.7084 20.1217 36.7148C29.3637 36.7212 36.7284 29.3725 36.7316 20.1498H36.7284Z" fill="#E4C000"/>
<path d="M25.9422 30.9265C24.7345 30.8912 23.4275 30.5357 22.1878 29.9622C16.806 27.4635 12.8497 23.5169 10.335 18.1447C9.69107 16.7672 9.20735 15.3385 9.25861 13.7816C9.28744 12.9583 9.55012 12.2343 10.146 11.6449C10.7482 11.0458 11.3473 10.4404 11.9495 9.84452C12.728 9.07569 13.6986 9.05327 14.4738 9.80929C15.4157 10.7287 16.3543 11.6545 17.2705 12.6027C18.2251 13.5926 18.2123 14.4223 17.2641 15.4089C16.617 16.0817 15.9602 16.748 15.2971 17.4047C15.0793 17.6225 15.0248 17.8083 15.1658 18.1094C15.7104 19.2787 16.492 20.2782 17.3377 21.236C18.7056 22.7865 20.2465 24.1255 22.1237 25.0417C22.4408 25.1955 22.6491 25.1731 22.9021 24.9104C23.5717 24.2184 24.2668 23.5521 24.962 22.8858C25.7885 22.0945 26.7335 22.101 27.5536 22.9114C28.4505 23.7956 29.3443 24.6861 30.2284 25.5863C31.135 26.5121 31.1286 27.3674 30.2349 28.29C29.6742 28.8699 29.1297 29.4689 28.5562 30.0327C27.8835 30.6958 27.041 30.9361 25.9422 30.9265Z" fill="#E4C000"/>
</svg>
