<svg width="21" height="20" viewBox="0 0 21 20" fill="none" xmlns="http://www.w3.org/2000/svg">
<path d="M10.5107 1.71219C14.8968 1.71219 18.4635 5.23685 18.4635 9.57113C18.4635 13.9054 14.8968 17.4301 10.5107 17.4301C6.12462 17.4301 2.55784 13.9054 2.55784 9.57113C2.55784 5.23685 6.12462 1.71219 10.5107 1.71219ZM10.5107 0C5.16176 0 0.825195 4.28536 0.825195 9.57113C0.825195 14.8569 5.16176 19.1423 10.5107 19.1423C15.8596 19.1423 20.1962 14.8569 20.1962 9.57113C20.1962 4.28536 15.8596 0 10.5107 0Z" fill="#49BEFF"/>
<path d="M4.85494 9.48678C4.85494 9.48678 9.69644 7.52266 11.3771 6.83044C12.0207 6.55405 14.2038 5.6686 14.2038 5.6686C14.2038 5.6686 15.2112 5.28214 15.127 6.22139C15.0998 6.60786 14.8746 7.96293 14.6518 9.43052C14.3152 11.5047 13.9513 13.7721 13.9513 13.7721C13.9513 13.7721 13.8944 14.4081 13.4192 14.5182C12.9439 14.6282 12.1593 14.1317 12.0207 14.0192C11.9093 13.936 9.92169 12.691 9.19397 12.082C8.99843 11.9156 8.77319 11.583 9.22121 11.1965C10.2286 10.2842 11.4316 9.14923 12.1593 8.43011C12.4959 8.09746 12.8301 7.32453 11.4316 8.26379C9.44397 9.61886 7.4836 10.8908 7.4836 10.8908C7.4836 10.8908 7.0356 11.1672 6.1965 10.9177C5.35741 10.6682 4.37722 10.338 4.37722 10.338C4.37722 10.338 3.70644 9.92216 4.85247 9.47944L4.85494 9.48678Z" fill="#49BEFF"/>
</svg>
