<svg width="53" height="76" viewBox="0 0 53 76" fill="none" xmlns="http://www.w3.org/2000/svg">
<path d="M11.1997 40.844V13.4315C11.1997 10.6138 13.482 8.33154 16.2997 8.33154C19.1175 8.33154 21.3997 10.6138 21.3997 13.4315V40.844" stroke="#E4C000" stroke-width="2" stroke-miterlimit="10" stroke-linecap="round"/>
<path d="M38.9312 74.9491C46.1477 74.9491 51.9999 69.0969 51.9999 61.8804V35.1054C51.9999 32.2876 49.7177 30.0054 46.8999 30.0054C44.0822 30.0054 41.7999 32.2876 41.7999 35.1054V40.8429" stroke="#E4C000" stroke-width="2" stroke-miterlimit="10" stroke-linecap="round"/>
<path d="M11.2 49.1637V40.3789C11.2 37.6632 9.14725 35.2917 6.43787 35.1132C3.46712 34.9219 1 37.2743 1 40.2004V55.1817C1 60.9192 6.18287 66.7459 6.18287 66.7459L10.0971 71.1702C12.22 73.5736 15.2736 74.9442 18.4739 74.9442" stroke="#E4C000" stroke-width="2" stroke-miterlimit="10" stroke-linecap="round"/>
<path d="M21.4001 40.8438V29.3688C21.4001 26.551 23.6824 24.2688 26.5001 24.2688C29.3179 24.2688 31.6001 26.551 31.6001 29.3688V40.8438" stroke="#E4C000" stroke-width="2" stroke-miterlimit="10" stroke-linecap="round"/>
<path d="M31.5999 40.8441V31.2816C31.5999 28.4639 33.8821 26.1816 36.6999 26.1816C39.5176 26.1816 41.7999 28.4639 41.7999 31.2816V40.8441" stroke="#E4C000" stroke-width="2" stroke-miterlimit="10" stroke-linecap="round"/>
<path d="M25.6901 20.7434C27.3859 18.6651 28.4123 16.0067 28.4123 13.1125C28.4123 6.42512 22.9871 1 16.2998 1C9.61238 1 4.18726 6.42512 4.18726 13.1125C4.18726 16.0131 5.21363 18.6715 6.91576 20.7561" stroke="#E4C000" stroke-width="2" stroke-miterlimit="10" stroke-linecap="round"/>
</svg>
