<svg width="33" height="33" viewBox="0 0 33 33" fill="none" xmlns="http://www.w3.org/2000/svg">
<path d="M21.0893 2.56898C25.043 2.56898 27.2567 3.01536 28.2588 4.01745C29.2609 5.01953 29.7072 7.23322 29.7072 11.196V21.0984C29.7072 25.0521 29.2609 27.2658 28.2588 28.2679C27.2567 29.27 25.043 29.7163 21.0802 29.7163H11.1778C7.22412 29.7163 5.01043 29.27 4.00834 28.2679C3.00626 27.2658 2.55987 25.0521 2.55987 21.0893V11.1869C2.55987 7.24233 3.00626 5.02864 4.01745 4.02656C5.02864 3.02447 7.24234 2.56898 11.196 2.56898H21.0984M21.0984 0H11.196C2.14993 0 0 2.14993 0 11.1778V21.0802C0 30.1263 2.13171 32.2762 11.1778 32.2762H21.0802C30.1263 32.2762 32.2762 30.1445 32.2762 21.0984V11.2051C32.2762 2.15904 30.1445 0.00910986 21.0984 0.00910986V0Z" fill="#292929"/>
<path fill-rule="evenodd" clip-rule="evenodd" d="M26.4188 11.1141C26.5736 10.6131 26.4188 10.2578 25.7082 10.2578H23.3579C22.7566 10.2578 22.4833 10.5767 22.3284 10.9319C22.3284 10.9319 21.1351 13.8562 19.4406 15.7419C18.8849 16.2976 18.6481 16.4616 18.3474 16.4616C18.1926 16.4616 17.9739 16.2976 17.9739 15.7875V11.1141C17.9739 10.5129 17.81 10.2578 17.2998 10.2578H13.6012C13.2277 10.2578 13 10.5402 13 10.7953C13 11.3692 13.8381 11.5059 13.9383 13.0819V16.5436C13.9383 17.2997 13.8016 17.4364 13.501 17.4364C12.7084 17.4364 10.7589 14.5121 9.6202 11.1506C9.38334 10.5311 9.16471 10.2578 8.56346 10.2578H6.21312C5.53899 10.2578 5.40234 10.5767 5.40234 10.9319C5.40234 11.5514 6.19489 14.6488 9.11915 18.73C11.0687 21.5176 13.8107 23.0298 16.2977 23.0298C17.7917 23.0298 17.9831 22.6928 17.9831 22.1188V19.9962C17.9831 19.3221 18.1197 19.1855 18.6025 19.1855C18.9578 19.1855 19.5408 19.3494 20.9438 20.6977C22.538 22.2919 22.8113 23.0207 23.704 23.0207H26.0544C26.7285 23.0207 27.0656 22.6837 26.8652 22.0277C26.6465 21.3718 25.8904 20.4153 24.8792 19.2675C24.3235 18.6115 23.5036 17.9192 23.2668 17.573C22.9115 17.1175 23.0117 16.9171 23.2668 16.5345C23.2668 16.5163 26.1455 12.4806 26.4279 11.105L26.4188 11.1141Z" fill="#292929"/>
</svg>
