<svg width="34" height="33" viewBox="0 0 34 33" fill="none" xmlns="http://www.w3.org/2000/svg">
<path d="M21.8911 2.56898C25.8448 2.56898 28.0584 3.01536 29.0605 4.01745C30.0626 5.01953 30.509 7.23322 30.509 11.196V21.0984C30.509 25.0521 30.0626 27.2658 29.0605 28.2679C28.0584 29.27 25.8447 29.7163 21.882 29.7163H11.9796C8.02588 29.7163 5.81219 29.27 4.8101 28.2679C3.80802 27.2658 3.36162 25.0521 3.36162 21.0893V11.1869C3.36162 7.24233 3.80801 5.02864 4.81921 4.02656C5.8304 3.02447 8.0441 2.56898 11.9978 2.56898H21.9002M21.9002 0H11.9978C2.95169 0 0.801758 2.14993 0.801758 11.1778V21.0802C0.801758 30.1263 2.93347 32.2762 11.9796 32.2762H21.882C30.928 32.2762 33.078 30.1445 33.078 21.0984V11.2051C33.078 2.15904 30.9463 0.00910986 21.9002 0.00910986V0Z" fill="#EFEFEF"/>
<path fill-rule="evenodd" clip-rule="evenodd" d="M27.2205 11.1141C27.3754 10.6131 27.2205 10.2578 26.51 10.2578H24.1596C23.5584 10.2578 23.2851 10.5767 23.1302 10.9319C23.1302 10.9319 21.9368 13.8562 20.2424 15.7419C19.6867 16.2976 19.4498 16.4616 19.1492 16.4616C18.9943 16.4616 18.7757 16.2976 18.7757 15.7875V11.1141C18.7757 10.5129 18.6117 10.2578 18.1016 10.2578H14.403C14.0295 10.2578 13.8017 10.5402 13.8017 10.7953C13.8017 11.3692 14.6398 11.5059 14.74 13.0819V16.5436C14.74 17.2997 14.6034 17.4364 14.3028 17.4364C13.5102 17.4364 11.5607 14.5121 10.422 11.1506C10.1851 10.5311 9.96647 10.2578 9.36522 10.2578H7.01488C6.34075 10.2578 6.2041 10.5767 6.2041 10.9319C6.2041 11.5514 6.99665 14.6488 9.92091 18.73C11.8704 21.5176 14.6125 23.0298 17.0995 23.0298C18.5935 23.0298 18.7848 22.6928 18.7848 22.1188V19.9962C18.7848 19.3221 18.9214 19.1855 19.4043 19.1855C19.7596 19.1855 20.3426 19.3494 21.7455 20.6977C23.3397 22.2919 23.613 23.0207 24.5058 23.0207H26.8561C27.5303 23.0207 27.8673 22.6837 27.6669 22.0277C27.4483 21.3718 26.6922 20.4153 25.681 19.2675C25.1253 18.6115 24.3054 17.9192 24.0685 17.573C23.7132 17.1175 23.8134 16.9171 24.0685 16.5345C24.0685 16.5163 26.9472 12.4806 27.2296 11.105L27.2205 11.1141Z" fill="#EFEFEF"/>
</svg>
