<svg width="19" height="20" viewBox="0 0 19 20" fill="none" xmlns="http://www.w3.org/2000/svg">
<path d="M16.1126 2.79227C14.3673 0.997658 11.9723 -0.0121151 9.48043 0.000109724H9.46346C4.32692 0.000109724 0.101809 4.2617 0.101809 9.44259C0.101809 9.46704 0.101809 9.49149 0.101809 9.51594C0.121202 11.1639 0.542985 12.78 1.33322 14.2225L0 19.1345L4.96686 17.8411C6.33887 18.6015 7.88299 18.9927 9.44892 18.978C14.6024 18.9486 18.83 14.6626 18.8251 9.46215C18.8372 6.96339 17.8603 4.56243 16.1126 2.79227ZM9.47801 17.3741C8.08903 17.3814 6.72672 17.0049 5.53652 16.2885L5.22866 16.1345L2.27133 16.9095L3.03975 13.9609L2.83371 13.6504C2.07256 12.4108 1.66774 10.9805 1.66774 9.52083C1.66774 5.21768 5.17775 1.67492 9.44649 1.67492C13.7152 1.67492 17.2228 5.21524 17.2228 9.52083C17.2228 12.2299 15.8314 14.7555 13.548 16.1858C12.3408 16.9658 10.9373 17.379 9.50225 17.3741M14.0085 11.6333L13.4437 11.3741C13.4437 11.3741 12.6244 11.0123 12.1105 10.7531C12.0596 10.7531 12.0087 10.7018 11.9578 10.7018C11.8317 10.7042 11.7081 10.7409 11.599 10.8044C11.49 10.868 11.5481 10.8558 10.8306 11.6846C10.7821 11.7824 10.6828 11.8411 10.5737 11.8387H10.5228C10.4452 11.8264 10.3749 11.7898 10.3167 11.736L10.0598 11.6333C9.50952 11.3986 9.00532 11.0661 8.57384 10.6504C8.47203 10.5477 8.31689 10.4426 8.21508 10.3399C7.8345 9.97315 7.50726 9.55506 7.24062 9.09785L7.18971 8.99516C7.14608 8.93159 7.10972 8.86313 7.0879 8.78734C7.07336 8.69687 7.09275 8.60641 7.13881 8.52817C7.18486 8.44993 7.34485 8.269 7.49756 8.11497C7.65028 7.96094 7.65028 7.8558 7.75451 7.75312C7.86117 7.60397 7.89753 7.41571 7.85632 7.23478C7.61634 6.56486 7.34242 5.90961 7.03699 5.26902C6.95458 5.13944 6.8261 5.04653 6.67824 5.00986H6.11343C6.01163 5.00986 5.90739 5.0612 5.80558 5.0612L5.75468 5.11255C5.65287 5.16389 5.54863 5.26658 5.44682 5.32037C5.34501 5.37171 5.29411 5.52819 5.18988 5.63088C4.83112 6.08809 4.63235 6.65043 4.62507 7.23478C4.62992 7.64554 4.71719 8.04896 4.88202 8.42304L4.93293 8.57707C5.3935 9.56973 6.03829 10.4646 6.83095 11.2152L7.03699 11.423C7.18728 11.5477 7.32303 11.6871 7.44666 11.8362C8.50839 12.7678 9.77132 13.4401 11.1336 13.802C11.2863 13.8533 11.4924 13.8533 11.6451 13.9047H12.159C12.4281 13.8924 12.6899 13.8215 12.9274 13.6968C13.0535 13.6406 13.1722 13.5697 13.2862 13.489L13.388 13.3863C13.4898 13.2836 13.594 13.2323 13.6958 13.1272C13.7952 13.0367 13.8825 12.9316 13.9528 12.8167C14.0522 12.5844 14.12 12.3423 14.1588 12.0929V11.7311C14.1128 11.6895 14.0619 11.6553 14.0061 11.6284" fill="#40D13D"/>
</svg>
