<svg width="33" height="33" viewBox="0 0 33 33" fill="none" xmlns="http://www.w3.org/2000/svg">
<g clip-path="url(#clip0_502_41)">
<path d="M21.5714 2.62612C25.6137 2.62612 27.8771 3.08251 28.9016 4.10706C29.9262 5.13161 30.3826 7.39493 30.3826 11.4466V21.571C30.3826 25.6133 29.9262 27.8766 28.9016 28.9012C27.8771 29.9257 25.6137 30.3821 21.5621 30.3821H11.4284C7.38607 30.3821 5.12275 29.9257 4.0982 28.9012C3.07365 27.8766 2.61726 25.6133 2.61726 21.5617V11.4279C2.61726 7.39493 3.07365 5.13161 4.10751 4.10706C5.14138 3.08251 7.4047 2.61681 11.447 2.61681H21.5714M21.5714 -0.00976562H11.447C2.19812 -0.000451538 0 2.19767 0 11.4279V21.5523C0 30.8012 2.1795 32.9994 11.4284 32.9994H21.5528C30.8017 32.9994 32.9998 30.8199 32.9998 21.571V11.4466C32.9998 2.19767 30.8203 -0.000451538 21.5714 -0.000451538V-0.00976562Z" fill="#292929"/>
<path d="M16.9984 24.1784C14.1762 24.048 11.708 23.9455 9.24905 23.8245C8.79266 23.8058 8.33627 23.7406 7.89851 23.6289C6.76219 23.3215 6.09157 22.5484 5.87735 21.3935C5.50479 19.4096 5.41164 17.3977 5.50479 15.3952C5.56067 14.1099 5.65381 12.8245 5.85872 11.5578C6.11952 9.94647 7.00435 9.21066 8.63432 9.03369C12.4065 8.63318 16.1974 8.63318 19.9789 8.75427C21.4505 8.80084 22.9128 8.88466 24.3751 9.02438C26.0424 9.18272 26.8992 10.0396 27.1787 11.6975C27.6071 14.3148 27.6257 16.9414 27.365 19.5679C27.3091 20.1547 27.2346 20.7508 27.1228 21.3376C26.834 22.7999 25.9492 23.6382 24.459 23.7499C21.8603 23.9362 19.2617 24.0573 16.9984 24.1877V24.1784ZM14.3718 13.0574V19.7076C16.3184 18.5899 18.2092 17.5002 20.1652 16.3825C18.1999 15.2555 16.3091 14.1658 14.3718 13.0574Z" fill="#292929"/>
</g>
<defs>
<clipPath id="clip0_502_41">
<rect width="32.9998" height="32.9998" fill="white"/>
</clipPath>
</defs>
</svg>
