<svg width="33" height="33" viewBox="0 0 33 33" fill="none" xmlns="http://www.w3.org/2000/svg">
<g clip-path="url(#clip0_472_89)">
<path d="M21.5714 2.62661C25.6137 2.62661 27.8771 3.083 28.9016 4.10755C29.9262 5.1321 30.3826 7.39542 30.3826 11.4471V21.5715C30.3826 25.6138 29.9262 27.8771 28.9016 28.9017C27.8771 29.9262 25.6137 30.3826 21.5621 30.3826H11.4284C7.38607 30.3826 5.12275 29.9262 4.0982 28.9017C3.07365 27.8771 2.61726 25.6138 2.61726 21.5621V11.4284C2.61726 7.39542 3.07365 5.1321 4.10751 4.10755C5.14138 3.083 7.4047 2.6173 11.447 2.6173H21.5714M21.5714 -0.00927734H11.447C2.19812 3.67435e-05 0 2.19816 0 11.4284V21.5528C0 30.8017 2.1795 32.9998 11.4284 32.9998H21.5528C30.8017 32.9998 32.9998 30.8204 32.9998 21.5715V11.4471C32.9998 2.19816 30.8203 3.67435e-05 21.5714 3.67435e-05V-0.00927734Z" fill="#EFEFEF"/>
<path d="M16.9984 24.1794C14.1762 24.049 11.708 23.9465 9.24905 23.8254C8.79266 23.8068 8.33627 23.7416 7.89851 23.6298C6.76219 23.3225 6.09157 22.5494 5.87735 21.3945C5.50479 19.4106 5.41164 17.3987 5.50479 15.3962C5.56067 14.1108 5.65381 12.8255 5.85872 11.5588C6.11952 9.94745 7.00435 9.21163 8.63432 9.03467C12.4065 8.63416 16.1974 8.63416 19.9789 8.75524C21.4505 8.80181 22.9128 8.88564 24.3751 9.02535C26.0424 9.18369 26.8992 10.0406 27.1787 11.6985C27.6071 14.3158 27.6257 16.9423 27.365 19.5689C27.3091 20.1557 27.2346 20.7518 27.1228 21.3386C26.834 22.8009 25.9492 23.6392 24.459 23.7509C21.8603 23.9372 19.2617 24.0583 16.9984 24.1887V24.1794ZM14.3718 13.0584V19.7086C16.3184 18.5909 18.2092 17.5012 20.1652 16.3835C18.1999 15.2565 16.3091 14.1667 14.3718 13.0584Z" fill="#EFEFEF"/>
</g>
<defs>
<clipPath id="clip0_472_89">
<rect width="32.9998" height="32.9998" fill="white"/>
</clipPath>
</defs>
</svg>
