<svg width="21" height="24" viewBox="0 0 21 24" fill="none" xmlns="http://www.w3.org/2000/svg">
<g clip-path="url(#clip0_192_241)">
<path d="M3.80983 11.0146L3.81026 11.0143L7.64643 8.66376L7.8947 8.51164L8.0225 8.25002L10.1213 3.95364L10.1215 3.95324L10.6389 2.89269L11.1564 3.95324L11.1566 3.95364L13.2554 8.25002L13.3832 8.51164L13.6315 8.66376L17.4676 11.0143L17.4681 11.0146L18.666 11.7477L17.4681 12.4809L17.4676 12.4812L13.6315 14.8317L13.3832 14.9838L13.2554 15.2455L11.1566 19.5419L11.1564 19.5423L10.6389 20.6028L10.1215 19.5423L10.1213 19.5419L8.0225 15.2455L7.8947 14.9838L7.64643 14.8317L3.81026 12.4812L3.80983 12.4809L2.6119 11.7477L3.80983 11.0146Z" stroke="#E4C000" stroke-width="2"/>
</g>
<defs>
<clipPath id="clip0_192_241">
<rect width="20.2388" height="22.6668" fill="white" transform="translate(0.696289 0.612305)"/>
</clipPath>
</defs>
</svg>
