<svg width="276" height="106" viewBox="0 0 276 106" fill="none" xmlns="http://www.w3.org/2000/svg">
<path d="M275.297 0.429483V0H265.93V0.429483V54.3856V63.8166V70.0802V79.5113V96.1365V104.637H275.297V96.1365V79.5113H275.35V54.3856H275.297V0.429483Z" fill="#D4D4D4"/>
<path d="M250.342 0.429483V54.3855H184.805L238.592 0.429483H225.332L162.16 63.8166H250.342H259.709V54.3855V0.429483V0H250.342V0.429483Z" fill="#D4D4D4"/>
<path d="M154.607 70.0823C153.345 70.0823 152.207 69.3128 151.727 68.1317C151.247 66.9506 151.514 65.6083 152.403 64.7135L216.499 0.431641H203.239L145.808 58.0563C142.236 61.6355 141.151 67.0401 143.089 71.7467C145.008 76.4533 149.559 79.5135 154.625 79.5135H250.361V104.657H259.71V70.1002H154.625L154.607 70.0823Z" fill="#D4D4D4"/>
<path d="M89.1947 25.6125L98.2777 16.4677C97.1934 16.3066 96.0914 16.1992 94.9538 16.1992H38.2162C25.7382 16.1992 15.6064 26.4178 15.6064 38.9628V66.6835C15.6064 72.1775 17.5617 77.242 20.7967 81.1791C22.8053 83.6308 25.3293 85.6352 28.1911 87.0669L35.4611 79.7474L89.2303 25.6304L89.1947 25.6125ZM24.9383 66.6835V38.9628C24.9383 31.6076 30.8929 25.6125 38.1984 25.6125H75.9524L27.4268 74.4681C25.8626 72.2669 24.9205 69.6005 24.9205 66.7014L24.9383 66.6835Z" fill="#D4D4D4"/>
<path d="M94.9537 0.484375H38.2161C17.1528 0.484375 0 17.736 0 38.9605V66.6811C0 87.8877 17.135 105.157 38.2161 105.157H94.9715C116.035 105.157 133.188 87.9056 133.188 66.6811V38.9605C133.188 17.7539 116.053 0.484375 94.9715 0.484375H94.9537ZM123.802 66.6811C123.802 82.6979 110.862 95.7261 94.9537 95.7261H38.2161C36.2253 95.7261 34.2879 95.5292 32.4037 95.1355C19.268 92.4153 9.3674 80.6936 9.3674 66.6811V38.9605C9.3674 22.9437 22.3076 9.91542 38.2161 9.91542H94.9715C96.9623 9.91542 98.8998 10.1123 100.784 10.506C113.92 13.2262 123.82 24.948 123.82 38.9605V66.6811H123.802Z" fill="#D4D4D4"/>
<path d="M104.997 18.596L97.7267 25.9154L43.9575 80.0324L34.8745 89.1773C35.9588 89.3384 37.0608 89.4457 38.1984 89.4457H94.9538C107.432 89.4457 117.564 79.2272 117.564 66.6822V38.9615C117.564 33.4675 115.608 28.4029 112.373 24.4658C110.365 22.0141 107.841 20.0098 104.979 18.5781L104.997 18.596ZM108.214 66.6822C108.214 74.0374 102.259 80.0324 94.9538 80.0324H57.1998L105.725 31.1768C107.29 33.378 108.232 36.0445 108.232 38.9436V66.6643L108.214 66.6822Z" fill="#D4D4D4"/>
</svg>
