<svg width="217" height="105" viewBox="0 0 217 105" fill="none" xmlns="http://www.w3.org/2000/svg">
<path d="M186.799 15.7012H149.738V25.1144H186.799C189.216 25.1144 191.171 27.1008 191.171 29.5168V104.661H200.521V29.5347C200.521 21.911 194.353 15.7012 186.781 15.7012H186.799Z" fill="#D4D4D4"/>
<path d="M186.799 0H149.738V9.41322H186.799C197.819 9.41322 206.778 18.4327 206.778 29.5282V104.655H216.127V29.5282C216.127 13.2429 202.974 0 186.799 0Z" fill="#D4D4D4"/>
<path d="M89.1957 25.1281L98.2787 15.9833C97.1944 15.8222 96.0924 15.7148 94.9548 15.7148H38.2171C25.7391 15.7148 15.6074 25.9334 15.6074 38.4784V66.1991C15.6074 71.6931 17.5627 76.7576 20.7977 80.6947C22.8063 83.1465 25.3303 85.1508 28.1921 86.5825L35.462 79.2631L89.1957 25.1281ZM24.957 66.1991V38.4784C24.957 31.1232 30.9116 25.1281 38.2171 25.1281H75.9711L27.4455 73.9659C25.8813 71.7647 24.9393 69.0982 24.9393 66.1991H24.957Z" fill="#D4D4D4"/>
<path d="M94.9537 0H38.2161C17.135 0 0 17.2516 0 38.4761V66.1968C0 87.4034 17.135 104.673 38.2161 104.673H94.9715C116.035 104.673 133.188 87.4213 133.188 66.1968V38.4761C133.17 17.2516 116.035 0 94.9537 0ZM123.802 66.1968C123.802 82.2136 110.862 95.2418 94.9537 95.2418H38.2161C36.2253 95.2418 34.2879 95.0449 32.4037 94.6512C19.268 91.931 9.3674 80.2093 9.3674 66.1968V38.4761C9.34962 22.4593 22.3076 9.41322 38.2161 9.41322H94.9715C96.9623 9.41322 98.8998 9.61008 100.784 10.0038C113.92 12.724 123.82 24.4457 123.82 38.4582V66.1789L123.802 66.1968Z" fill="#D4D4D4"/>
<path d="M104.997 18.0882L97.7267 25.4076L43.9575 79.5247L34.8745 88.6695C35.9588 88.8305 37.0608 88.9379 38.1984 88.9379H94.9538C107.432 88.9379 117.564 78.7194 117.564 66.1744V38.4537C117.564 32.9597 115.608 27.8951 112.373 23.958C110.365 21.5063 107.841 19.502 104.979 18.0703L104.997 18.0882ZM108.214 66.1744C108.214 73.5296 102.259 79.5247 94.9538 79.5247H57.1998L105.725 30.669C107.29 32.8702 108.232 35.5367 108.232 38.4358V66.1565L108.214 66.1744Z" fill="#D4D4D4"/>
</svg>
