<svg width="285" height="106" viewBox="0 0 285 106" fill="none" xmlns="http://www.w3.org/2000/svg">
<path d="M252.055 39.9665H175.497V25.2382H271.902V15.7715H166.048V49.4156H252.073C264.833 49.4156 275.213 59.7953 275.213 72.555C275.213 85.3148 264.833 95.6942 252.073 95.6942H150.282V105.161H252.073C270.041 105.161 284.662 90.5404 284.662 72.5729C284.662 54.6055 270.041 39.9844 252.073 39.9844L252.055 39.9665Z" fill="#D4D4D4"/>
<path d="M268.877 72.5499C268.877 63.2798 261.325 55.7277 252.055 55.7277H159.731V9.46698H271.902V0H150.264V65.1947H252.055C256.118 65.1947 259.411 68.5054 259.411 72.5499C259.411 76.5944 256.1 79.9051 252.055 79.9051H150.264V89.3718H252.055C261.325 89.3718 268.877 81.82 268.877 72.5499Z" fill="#D4D4D4"/>
<path d="M90.8521 25.2459L100.033 16.0654C98.9231 15.9043 97.8136 15.7969 96.6682 15.7969H39.2762C26.6596 15.7969 16.4053 26.0513 16.4053 38.6678V66.5139C16.4053 72.0437 18.3738 77.1083 21.6488 81.0812C23.6889 83.5508 26.2301 85.555 29.1292 86.9867L36.4844 79.6315L90.87 25.2459H90.8521ZM25.8543 66.5139V38.6678C25.8543 31.2768 31.8673 25.2639 39.2762 25.2639H77.466L28.3955 74.3344C26.8028 72.1332 25.8722 69.431 25.8722 66.5318L25.8543 66.5139Z" fill="#D4D4D4"/>
<path d="M96.6677 0H39.2757C17.9617 0 0.620605 17.341 0.620605 38.655V66.5011C0.620605 87.8151 17.9617 105.156 39.2757 105.156H96.6677C117.982 105.156 135.323 87.8151 135.323 66.5011V38.655C135.323 17.341 117.982 0 96.6677 0ZM125.856 66.5011C125.856 82.5895 112.756 95.6891 96.6677 95.6891H39.2757C37.2534 95.6891 35.2849 95.4923 33.3879 95.0986C20.1092 92.3606 10.0875 80.5851 10.0875 66.5011V38.655C10.0875 22.5666 23.1873 9.46698 39.2757 9.46698H96.6677C98.6899 9.46698 100.641 9.66376 102.555 10.0575C115.834 12.7776 125.856 24.571 125.856 38.655V66.5011Z" fill="#D4D4D4"/>
<path d="M106.831 18.1836L99.4763 25.5388L45.0907 79.9243L35.9102 89.1049C37.0197 89.266 38.1292 89.3732 39.2746 89.3732H96.6666C109.283 89.3732 119.538 79.119 119.538 66.5024V38.6564C119.538 33.1265 117.569 28.062 114.294 24.0891C112.254 21.6195 109.713 19.6153 106.814 18.1836H106.831ZM110.089 66.5024C110.089 73.8934 104.075 79.9064 96.6845 79.9064H58.4947L107.565 30.8359C109.158 33.0371 110.089 35.7393 110.089 38.6384V66.4845V66.5024Z" fill="#D4D4D4"/>
</svg>
