<svg width="284" height="105" viewBox="0 0 284 105" fill="none" xmlns="http://www.w3.org/2000/svg">
<path d="M157.931 72.2186C157.931 59.5304 168.257 49.1866 180.963 49.1866H248.663C257.897 49.1866 265.413 41.6703 265.413 32.436C265.413 23.2018 257.897 15.6855 248.663 15.6855H161.08V25.0987H248.663C252.707 25.0987 255.982 28.3916 255.982 32.4181C255.982 36.4447 252.689 39.7376 248.663 39.7376H180.963C163.067 39.7376 148.518 54.2869 148.518 72.1827V104.628H283.094V95.2148H157.931V72.1827V72.2186Z" fill="#D4D4D4"/>
<path d="M173.644 72.2098C173.644 68.1653 176.937 64.8904 180.963 64.8904H248.663C266.559 64.8904 281.109 50.3411 281.109 32.4452C281.109 14.5493 266.559 0 248.663 0H161.081V9.41324H248.663C261.352 9.41324 271.695 19.7391 271.695 32.4452C271.695 45.1513 261.369 55.4772 248.663 55.4772H180.963C171.729 55.4772 164.213 62.9934 164.213 72.2277V88.9782H283.095V79.565H173.626V72.2456L173.644 72.2098Z" fill="#D4D4D4"/>
<path d="M89.8018 25.1281L98.9465 15.9833C97.8549 15.8222 96.7453 15.7148 95.6 15.7148H38.4764C25.9135 15.7148 15.7129 25.9334 15.7129 38.4784V66.199C15.7129 71.6931 17.6814 76.7576 20.9385 80.6947C22.9607 83.1464 25.5019 85.1508 28.3832 86.5825L35.7026 79.2631L89.8375 25.1459L89.8018 25.1281ZM25.1082 66.199V38.4784C25.1082 31.1232 31.1033 25.1281 38.4585 25.1281H76.4693L27.6136 73.9838C26.0388 71.7826 25.0903 69.1161 25.0903 66.217L25.1082 66.199Z" fill="#D4D4D4"/>
<path d="M95.5997 0H38.4761C17.2695 0 0 17.2516 0 38.4761V66.1968C0 87.4034 17.2516 104.673 38.4761 104.673H95.6176C116.824 104.673 134.094 87.4213 134.094 66.1968V38.4761C134.094 17.2695 116.842 0 95.6176 0H95.5997ZM124.645 66.1968C124.645 82.2136 111.616 95.2418 95.5997 95.2418H38.4761C36.4718 95.2418 34.5211 95.0449 32.6242 94.6512C19.3991 91.9311 9.43112 80.2092 9.43112 66.1968V38.4761C9.43112 22.4593 22.4593 9.4311 38.4761 9.4311H95.6176C97.6219 9.4311 99.5726 9.62798 101.47 10.0217C114.695 12.7419 124.663 24.4636 124.663 38.4761V66.1968H124.645Z" fill="#D4D4D4"/>
<path d="M105.71 18.0882L98.3906 25.4076L44.2556 79.5247L35.1108 88.6694C36.2025 88.8305 37.312 88.9379 38.4574 88.9379H95.5988C108.162 88.9379 118.362 78.7194 118.362 66.1744V38.4537C118.362 32.9596 116.394 27.8952 113.137 23.9581C111.115 21.5063 108.573 19.502 105.692 18.0703L105.71 18.0882ZM108.949 66.1744C108.949 73.5296 102.954 79.5247 95.5988 79.5247H57.588L106.444 30.669C108.019 32.8702 108.967 35.5367 108.967 38.4358V66.1565L108.949 66.1744Z" fill="#D4D4D4"/>
</svg>
