<svg width="262" height="105" viewBox="0 0 262 105" fill="none" xmlns="http://www.w3.org/2000/svg">
<path d="M228.567 0H152.492V9.41324H228.567C241.255 9.41324 251.599 19.7391 251.599 32.4452C251.599 37.4203 250.006 42.0016 247.304 45.7776C245.407 48.4441 242.955 50.6811 240.11 52.3275C242.937 53.9739 245.389 56.2109 247.304 58.8774C249.988 62.6356 251.599 67.2347 251.599 72.2098C251.599 84.8979 241.273 95.2417 228.567 95.2417H139.893V104.655H228.567C246.463 104.655 261.012 90.1056 261.012 72.2098C261.012 64.7114 258.435 57.8215 254.14 52.3275C258.417 46.8335 261.012 39.9436 261.012 32.4452C261.012 14.5493 246.463 0 228.567 0Z" fill="#D4D4D4"/>
<path d="M245.299 72.2052C245.299 68.3755 243.992 64.85 241.809 62.0225C238.749 58.0496 233.953 55.4727 228.548 55.4727H152.473V64.8859H228.548C232.592 64.8859 235.867 68.1787 235.867 72.2052C235.867 76.2318 232.575 79.5247 228.548 79.5247H139.874V88.9379H228.548C237.782 88.9379 245.299 81.4217 245.299 72.1874V72.2052Z" fill="#D4D4D4"/>
<path d="M228.566 49.1979C233.97 49.1979 238.766 46.621 241.826 42.6481C244.01 39.8206 245.316 36.2951 245.316 32.4653C245.316 23.2311 237.8 15.7148 228.566 15.7148H152.49V25.128H228.566C232.61 25.128 235.885 28.4209 235.885 32.4474C235.885 36.474 232.592 39.7668 228.566 39.7668H152.49V49.18H228.566V49.1979Z" fill="#D4D4D4"/>
<path d="M89.8013 25.128L98.946 15.9832C97.8544 15.8222 96.7449 15.7148 95.5995 15.7148H38.4759C25.913 15.7148 15.7124 25.9333 15.7124 38.4783V66.199C15.7124 71.693 17.6809 76.7576 20.938 80.6947C22.9602 83.1464 25.5014 85.1507 28.3827 86.5824L35.7021 79.263L89.8371 25.1459L89.8013 25.128ZM25.1077 66.199V38.4783C25.1077 31.1231 31.1028 25.128 38.458 25.128H76.4688L27.6131 73.9838C26.0383 71.7826 25.0898 69.116 25.0898 66.2169L25.1077 66.199Z" fill="#D4D4D4"/>
<path d="M95.5997 0H38.4761C17.2695 0 0 17.2516 0 38.4761V66.1968C0 87.4034 17.2516 104.673 38.4761 104.673H95.6176C116.824 104.673 134.094 87.4213 134.094 66.1968V38.4761C134.094 17.2695 116.842 0 95.6176 0H95.5997ZM124.645 66.1968C124.645 82.2136 111.616 95.2417 95.5997 95.2417H38.4761C36.4718 95.2417 34.5211 95.0449 32.6242 94.6512C19.3991 91.9311 9.43112 80.2092 9.43112 66.1968V38.4761C9.43112 22.4593 22.4593 9.43115 38.4761 9.43115H95.6176C97.6219 9.43115 99.5726 9.62793 101.47 10.0216C114.695 12.7418 124.663 24.4636 124.663 38.4761V66.1968H124.645Z" fill="#D4D4D4"/>
<path d="M105.71 18.0882L98.3911 25.4077L44.2561 79.5247L35.1113 88.6695C36.203 88.8306 37.3125 88.938 38.4579 88.938H95.5993C108.162 88.938 118.363 78.7194 118.363 66.1744V38.4537C118.363 32.9597 116.394 27.8952 113.137 23.9581C111.115 21.5064 108.574 19.502 105.693 18.0703L105.71 18.0882ZM108.95 66.1744C108.95 73.5296 102.955 79.5247 95.5993 79.5247H57.5885L106.444 30.6691C108.019 32.8703 108.968 35.5367 108.968 38.4358V66.1565L108.95 66.1744Z" fill="#D4D4D4"/>
</svg>
