<svg width="69" height="54" viewBox="0 0 69 54" fill="none" xmlns="http://www.w3.org/2000/svg">
<path d="M68.0775 0.399573V0.18457H63.3135V0.399573V27.7163V32.4916V35.6714V40.4354V48.8545V53.1659H68.0775V48.8545V40.4354H68.1001V27.7163H68.0775V0.399573Z" fill="#E4C000"/>
<path d="M55.3699 0.399573V27.7163H21.9539L49.3724 0.399573H42.6168L10.4116 32.4916H55.3699H60.1339V27.7163V0.399573V0.18457H55.3699V0.399573Z" fill="#E4C000"/>
<path d="M6.56407 35.6722C5.91906 35.6722 5.34197 35.2875 5.09301 34.6877C4.84406 34.0993 4.97985 33.409 5.44381 32.9564L38.1129 0.400391H31.3573L2.08297 29.5729C0.261099 31.3835 -0.293395 34.1219 0.691092 36.5096C1.67558 38.8859 3.99535 40.4362 6.56407 40.4362H55.3585V53.1667H60.1225V35.6722H6.55278H6.56407Z" fill="#E4C000"/>
</svg>
