<svg width="69" height="54" viewBox="0 0 69 54" fill="none" xmlns="http://www.w3.org/2000/svg">
<path d="M52.1018 20.3142H13.5258V12.891H62.0938V8.12695H8.75044V25.0783H52.1018C58.5293 25.0783 63.7573 30.3062 63.7573 36.7337C63.7573 43.1611 58.5293 48.3891 52.1018 48.3891H0.806641V53.1531H52.1018C61.1546 53.1531 68.5326 45.7864 68.5326 36.7224C68.5326 27.6583 61.1659 20.2916 52.1018 20.2916V20.3142Z" fill="#E4C000"/>
<path d="M60.5775 36.7351C60.5775 32.0616 56.7753 28.2594 52.1018 28.2594H5.57066V4.94859H62.0938V0.18457H0.806641V33.0348H52.1018C54.15 33.0348 55.8135 34.6982 55.8135 36.7464C55.8135 38.7946 54.15 40.458 52.1018 40.458H0.806641V45.2221H52.1018C56.7753 45.2221 60.5775 41.4199 60.5775 36.7464V36.7351Z" fill="#E4C000"/>
</svg>
