<svg width="69" height="54" viewBox="0 0 69 54" fill="none" xmlns="http://www.w3.org/2000/svg">
<path d="M5.58149 37.0764C5.58149 30.649 10.8095 25.421 17.2369 25.421H51.5129C56.1864 25.421 59.9886 21.6189 59.9886 16.9454C59.9886 12.2719 56.1864 8.46973 51.5129 8.46973H7.17704V13.2337H51.5129C53.5611 13.2337 55.2246 14.8972 55.2246 16.9454C55.2246 18.9936 53.5611 20.657 51.5129 20.657H17.2369C8.18416 20.657 0.806152 28.0237 0.806152 37.0878V53.5185H68.9395V48.7545H5.57016V37.0991L5.58149 37.0764Z" fill="#E4C000"/>
<path d="M13.5253 37.0765C13.5253 35.0283 15.1887 33.3649 17.2369 33.3649H51.5129C60.5657 33.3649 67.9437 25.9982 67.9437 16.9341C67.9437 7.87002 60.5657 0.514648 51.5129 0.514648H7.177V5.27866H51.5129C57.9403 5.27866 63.1683 10.5066 63.1683 16.9341C63.1683 23.3616 57.9403 28.5895 51.5129 28.5895H17.2369C12.5634 28.5895 8.76123 32.3917 8.76123 37.0652V45.5408H68.9508V40.7768H13.5366V37.0652L13.5253 37.0765Z" fill="#E4C000"/>
</svg>
