<svg width="68" height="54" viewBox="0 0 68 54" fill="none" xmlns="http://www.w3.org/2000/svg">
<path d="M51.3082 20.9856H13.3318V17.2739C13.3318 15.2257 14.9953 13.5623 17.0435 13.5623H61.3794V8.79829H17.0435C12.37 8.79829 8.56783 12.6004 8.56783 17.2739V25.7496H51.3195C57.7469 25.7496 62.9749 30.9776 62.9749 37.405C62.9749 43.8325 57.7469 49.0604 51.3195 49.0604H16.8737C10.5481 49.0604 5.39936 43.9117 5.39936 37.5861V17.2739C5.39936 10.8465 10.6273 5.61851 17.0548 5.61851H61.3907V0.854492H17.0548C8.00203 0.854492 0.624023 8.22117 0.624023 17.2852V37.5974C0.624023 46.5596 7.9115 53.8471 16.8737 53.8471H51.3195C60.3722 53.8471 67.7503 46.4804 67.7503 37.4163C67.7503 28.3523 60.3836 20.9856 51.3195 20.9856H51.3082Z" fill="#E4C000"/>
<path d="M16.8626 45.88H51.3083C55.9818 45.88 59.784 42.0778 59.784 37.4044C59.784 32.7309 55.9818 28.9287 51.3083 28.9287H8.55664V37.5854C8.55664 42.1571 12.2796 45.88 16.8512 45.88H16.8626ZM13.332 33.6927H51.3083C53.3565 33.6927 55.02 35.3562 55.02 37.4044C55.02 39.4525 53.3565 41.116 51.3083 41.116H16.8626C14.9162 41.116 13.332 39.5318 13.332 37.5854V33.704V33.6927Z" fill="#E4C000"/>
</svg>
