<svg width="62" height="54" viewBox="0 0 62 54" fill="none" xmlns="http://www.w3.org/2000/svg">
<path d="M45.5144 0.228858H6.99491V4.99287H45.5144C51.9419 4.99287 57.1698 10.2208 57.1698 16.6483C57.1698 19.1604 56.3551 21.4915 54.9972 23.3926C54.0353 24.7392 52.7906 25.8708 51.3648 26.7082C52.8019 27.5456 54.0353 28.6772 54.9972 30.0238C56.3551 31.9362 57.1698 34.2559 57.1698 36.7681C57.1698 43.1955 51.9419 48.4235 45.5144 48.4235H0.624023V53.1875H45.5144C54.5672 53.1875 61.9452 45.8208 61.9452 36.7567C61.9452 32.9659 60.6438 29.4693 58.4712 26.6856C60.6438 23.9018 61.9452 20.4165 61.9452 16.6144C61.9452 7.56159 54.5785 0.183594 45.5144 0.183594V0.228858Z" fill="#E4C000"/>
<path d="M53.9901 36.7921C53.9901 34.8457 53.3224 33.0691 52.2248 31.632C50.6745 29.6177 48.2416 28.3164 45.5144 28.3164H6.99491V33.0804H45.5144C47.5626 33.0804 49.226 34.7439 49.226 36.7921C49.226 38.8402 47.5626 40.5037 45.5144 40.5037H0.624023V45.2677H45.5144C50.1879 45.2677 53.9901 41.4655 53.9901 36.7921Z" fill="#E4C000"/>
<path d="M45.5146 25.1349C48.2531 25.1349 50.6747 23.8336 52.225 21.8193C53.3226 20.3935 53.9903 18.6056 53.9903 16.6592C53.9903 11.9858 50.1881 8.18359 45.5146 8.18359H6.99512V12.9476H45.5146C47.5628 12.9476 49.2263 14.6111 49.2263 16.6592C49.2263 18.7074 47.5628 20.3709 45.5146 20.3709H6.99512V25.1349H45.5146Z" fill="#E4C000"/>
</svg>
