<svg width="2176" height="1136" viewBox="0 0 2176 1136" fill="none" xmlns="http://www.w3.org/2000/svg">
<g clip-path="url(#clip0_723_8)">
<path d="M2168.34 973.241L2175.17 969.499L2168.34 965.767L2068.07 910.924L2009.5 803.826L1950.93 910.924L1900.05 938.754L1843.83 969.499L1900.05 1000.25L1950.93 1028.07L2009.5 1135.17L2068.07 1028.07L2168.34 973.241Z" stroke="#969696" stroke-width="0.75" stroke-miterlimit="10"/>
<path d="M2058.65 1019.6L2026.32 1078.72L2004.52 1118.59L1982.71 1078.72L1950.38 1019.6L1903.37 993.894L1891.34 987.321L1851.4 965.471L1891.31 943.642L1903.37 937.059L1950.38 911.339L1982.71 852.224L2004.52 812.361L2026.32 852.224L2058.65 911.339L2117.78 943.674L2151.32 962.015L2157.63 965.471L2151.32 968.927L2117.78 987.268L2058.65 1019.6Z" stroke="#969696" stroke-width="0.69" stroke-miterlimit="10"/>
<path d="M2049.22 1011.14L2019.55 1065.4L1999.53 1102L1979.52 1065.4L1949.83 1011.14L1906.67 987.533L1895.64 981.501L1858.98 961.442L1895.62 941.405L1906.67 935.352L1949.83 911.752L1979.52 857.482L1999.53 820.885L2019.55 857.482L2049.22 911.752L2103.51 941.426L2134.29 958.273L2140.09 961.442L2134.29 964.612L2103.51 981.458L2049.22 1011.14Z" stroke="#969696" stroke-width="0.64" stroke-miterlimit="10"/>
<path d="M2039.81 1002.67L2012.79 1052.09L1994.55 1085.42L1976.33 1052.09L1949.29 1002.67L1909.98 981.173L1899.94 975.682L1866.55 957.415L1899.91 939.169L1909.98 933.656L1949.29 912.156L1976.33 862.741L1994.55 829.41L2012.78 862.741L2039.81 912.156L2089.24 939.19L2117.28 954.531L2122.56 957.415L2117.28 960.298L2089.24 975.639L2039.81 1002.67Z" stroke="#969696" stroke-width="0.58" stroke-miterlimit="10"/>
<path d="M2030.39 994.202L2006.01 1038.77L1989.57 1068.84L1973.13 1038.77L1948.75 994.202L1913.3 974.811L1904.24 969.86L1874.12 953.385L1904.21 936.931L1913.29 931.959L1948.75 912.569L1973.13 867.999L1989.57 837.932L2006.01 867.999L2030.39 912.569L2074.97 936.953L2100.25 950.777L2105.02 953.385L2100.25 955.993L2074.95 969.828L2030.39 994.202Z" stroke="#969696" stroke-width="0.53" stroke-miterlimit="10"/>
<path d="M2020.96 985.731L1999.24 1025.46L1984.59 1052.25L1969.93 1025.46L1948.21 985.731L1916.61 968.45L1908.53 964.04L1881.7 949.356L1908.51 934.684L1916.61 930.263L1948.21 912.982L1969.93 873.257L1984.59 846.467L1999.24 873.257L2020.96 912.982L2060.7 934.705L2083.23 947.035L2087.48 949.356L2083.23 951.678L2060.69 964.008L2020.96 985.731Z" stroke="#969696" stroke-width="0.47" stroke-miterlimit="10"/>
<path d="M2011.55 977.272L1992.47 1012.14L1979.6 1035.67L1966.73 1012.14L1947.66 977.272L1919.92 962.09L1912.82 958.21L1889.27 945.329L1912.81 932.448L1919.92 928.567L1947.66 913.386L1966.73 878.517L1979.6 854.992L1992.47 878.517L2011.55 913.386L2046.42 932.469L2066.22 943.293L2069.94 945.329L2066.22 947.364L2046.42 958.199L2011.55 977.272Z" stroke="#969696" stroke-width="0.42" stroke-miterlimit="10"/>
<path d="M2002.12 968.8L1985.7 998.824L1974.62 1019.08L1963.54 998.824L1947.12 968.8L1923.22 955.728L1917.12 952.389L1896.84 941.299L1917.11 930.21L1923.22 926.87L1947.12 913.798L1963.54 883.774L1974.62 863.514L1985.7 883.774L2002.12 913.798L2032.15 930.22L2049.19 939.55L2052.41 941.299L2049.19 943.059L2032.15 952.378L2002.12 968.8Z" stroke="#969696" stroke-width="0.37" stroke-miterlimit="10"/>
<path d="M1992.7 960.33L1978.92 985.509L1969.64 1002.5L1960.35 985.509L1946.58 960.33L1926.54 949.379L1921.41 946.569L1904.41 937.272L1921.41 927.974L1926.53 925.175L1946.58 914.213L1960.35 889.034L1969.64 872.05L1978.92 889.034L1992.7 914.213L2017.88 927.984L2032.18 935.798L2034.86 937.272L2032.18 938.745L2017.88 946.559L1992.7 960.33Z" stroke="#969696" stroke-width="0.31" stroke-miterlimit="10"/>
<path d="M1983.27 951.87L1972.16 972.194L1964.65 985.912L1957.15 972.194L1946.03 951.87L1929.85 943.018L1925.71 940.749L1911.99 933.243L1925.7 925.737L1929.84 923.479L1946.03 914.626L1957.15 894.292L1964.65 880.573L1972.16 894.292L1983.27 914.626L2003.61 925.737L2015.15 932.055L2017.32 933.243L2015.15 934.43L2003.61 940.749L1983.27 951.87Z" stroke="#969696" stroke-width="0.26" stroke-miterlimit="10"/>
<path d="M1953.96 958.877L1945.49 943.398L1930.01 934.928L1919.56 929.213L1930.01 923.499L1945.49 915.028L1953.96 899.55L1959.67 889.096L1965.39 899.55L1973.86 915.028L1989.34 923.499L1999.79 929.213L1989.34 934.928L1973.86 943.398L1965.39 958.877L1959.67 969.33L1953.96 958.877Z" stroke="#969696" stroke-width="0.2" stroke-miterlimit="10"/>
</g>
<g clip-path="url(#clip1_723_8)">
<path d="M492.081 530.008H476.256V727.274H492.081V530.008Z" fill="#D9D9D9"/>
<path d="M523.731 530.008H507.906V727.274H523.731V530.008Z" fill="#D9D9D9"/>
<path d="M1969.22 530.008H1921.75H1818.31V545.743H1921.75H1937.57H1953.4H1969.22H2069V530.008H1969.22Z" fill="#D9D9D9"/>
<path d="M1818.3 561.475V577.402H1921.75V727.27H1937.57V577.402V561.475H1921.75H1818.3Z" fill="#D9D9D9"/>
<path d="M1953.4 561.475V577.402V727.27H1969.22V577.402H2069V561.475H1969.22H1953.4Z" fill="#D9D9D9"/>
<path d="M703.019 530.008H680.632L581.436 628.641L680.632 727.274H703.212L603.822 628.641L703.019 530.008Z" fill="#D9D9D9"/>
<path d="M658.052 530.008H635.665L536.469 628.641L635.858 727.274H658.245L558.856 628.641L658.052 530.008Z" fill="#D9D9D9"/>
<path d="M923.221 571.649L912.027 582.97L843.516 650.901L766.706 727.274H789.093L854.709 662.03L934.414 582.97L987.679 530.008H965.099L923.221 571.649Z" fill="#D9D9D9"/>
<path d="M1049.43 652.249H1177.77C1185.49 652.249 1191.67 658.39 1191.67 666.065C1191.67 673.741 1185.49 679.882 1177.77 679.882H1001.57V695.617H1177.77C1194.18 695.617 1207.49 682.376 1207.49 666.065C1207.49 649.755 1194.18 636.514 1177.77 636.514H1049.43C1024.35 636.514 1003.89 616.173 1003.89 591.227C1003.89 566.281 1024.35 545.94 1049.43 545.94H1223.32V530.205H1049.43C1015.47 530.205 987.87 557.646 987.87 591.419C987.87 625.192 1015.47 652.633 1049.43 652.633V652.249Z" fill="#D9D9D9"/>
<path d="M1177.78 604.842H1049.44C1041.72 604.842 1035.54 598.702 1035.54 591.026C1035.54 583.35 1041.72 577.21 1049.44 577.21H1223.32V561.475H1049.44C1033.03 561.475 1019.72 574.715 1019.72 591.026C1019.72 607.337 1033.03 620.578 1049.44 620.578H1177.78C1202.86 620.578 1223.32 640.918 1223.32 665.864C1223.32 690.811 1202.86 711.151 1177.78 711.151H1001.58V726.886H1177.78C1211.74 726.886 1239.34 699.446 1239.34 665.673C1239.34 631.899 1211.74 604.459 1177.78 604.459V604.842Z" fill="#D9D9D9"/>
<path d="M1460.5 530.008H1293.76H1267.13V727.274H1282.95V545.935H1289.71H1314.6H1460.31C1485.4 545.935 1505.86 566.276 1505.86 591.222C1505.86 616.168 1485.4 636.509 1460.31 636.509H1314.6H1298.78V727.274H1314.6V652.244H1460.31C1494.28 652.244 1521.87 624.804 1521.87 591.03C1521.87 557.257 1494.28 529.816 1460.31 529.816L1460.5 530.008Z" fill="#D9D9D9"/>
<path d="M1460.5 620.775C1476.91 620.775 1490.22 607.534 1490.22 591.223C1490.22 574.913 1476.91 561.672 1460.5 561.672H1314.8H1298.97V620.775H1314.8H1460.5ZM1314.8 577.407H1460.5C1468.22 577.407 1474.4 583.548 1474.4 591.223C1474.4 598.899 1468.22 605.04 1460.5 605.04H1314.8V577.407Z" fill="#D9D9D9"/>
<path d="M1731.07 561.475H1622.81C1600.03 561.475 1581.7 579.896 1581.7 602.348V654.543C1581.7 677.186 1600.23 695.416 1622.81 695.416H1731.07C1753.85 695.416 1772.18 676.994 1772.18 654.543V602.348C1772.18 579.704 1753.65 561.475 1731.07 561.475V561.475ZM1756.36 654.735C1756.36 668.551 1744.97 679.873 1731.07 679.873H1622.81C1608.91 679.873 1597.53 668.551 1597.53 654.735V602.54C1597.53 588.723 1608.91 577.402 1622.81 577.402H1731.07C1744.97 577.402 1756.36 588.723 1756.36 602.54V654.735Z" fill="#D9D9D9"/>
<path d="M1731.08 530.008H1622.81C1582.67 530.008 1549.86 562.63 1549.86 602.543V654.738C1549.86 694.652 1582.67 727.274 1622.81 727.274H1731.08C1771.22 727.274 1804.03 694.652 1804.03 654.738V602.543C1804.03 562.63 1771.22 530.008 1731.08 530.008ZM1788.2 654.738C1788.2 686.017 1762.53 711.539 1731.08 711.539H1622.81C1591.35 711.539 1565.68 686.017 1565.68 654.738V602.543C1565.68 571.265 1591.35 545.743 1622.81 545.743H1731.08C1762.53 545.743 1788.2 571.265 1788.2 602.543V654.738Z" fill="#D9D9D9"/>
<path d="M854.709 617.511L900.64 571.649L912.027 560.519L942.712 530.008H920.325L900.64 549.389L854.709 595.06L789.285 530.008H766.898L843.515 606.381L854.709 617.511Z" fill="#D9D9D9"/>
<path d="M843.516 628.641L832.322 617.511L744.319 530.008H721.932L821.129 628.641L721.739 727.274H744.126L832.322 639.771L843.516 628.641Z" fill="#D9D9D9"/>
<path d="M258.564 652.249H386.902C394.621 652.249 400.797 658.39 400.797 666.065C400.797 673.741 394.621 679.882 386.902 679.882H208.965V695.617H386.902C403.306 695.617 416.622 682.376 416.622 666.065C416.622 649.755 403.306 636.514 386.902 636.514H258.564C233.475 636.514 213.018 616.173 213.018 591.227C213.018 566.281 233.475 545.94 258.564 545.94H432.447V530.205H258.564C224.598 530.205 197 557.646 197 591.419C197 625.192 224.598 652.633 258.564 652.633V652.249Z" fill="#D9D9D9"/>
<path d="M386.902 604.842H258.564C250.845 604.842 244.669 598.702 244.669 591.026C244.669 583.35 250.845 577.21 258.564 577.21H432.448V561.475H258.564C242.16 561.475 228.844 574.715 228.844 591.026C228.844 607.337 242.16 620.578 258.564 620.578H386.902C411.991 620.578 432.448 640.918 432.448 665.864C432.448 690.811 411.991 711.151 386.902 711.151H208.966V726.886H386.902C420.868 726.886 448.466 699.446 448.466 665.673C448.466 631.899 420.868 604.459 386.902 604.459V604.842Z" fill="#D9D9D9"/>
<path d="M853.743 530.009L854.708 531.736L855.673 530.009L870.148 503.719L898.324 488.368L870.148 473.016L862.814 459.776L854.708 445L846.603 459.776L839.269 473.016L811.093 488.368L839.269 503.719L853.743 530.009V530.009ZM846.989 486.833L851.042 484.53L853.357 480.5L854.901 477.814L856.445 480.5L858.761 484.53L862.814 486.833L865.516 488.368L862.814 489.903L858.761 492.206L856.445 496.235L854.901 498.922L853.357 496.235L851.042 492.206L846.989 489.903L844.287 488.368L846.989 486.833Z" fill="#D9D9D9"/>
<path d="M924.182 655.871L908.743 683.887L880.566 699.239L908.743 714.59L924.182 742.607L939.621 714.59L967.798 699.239L939.621 683.887L924.182 655.871V655.871ZM931.902 700.774L927.849 703.077L925.533 707.107L923.989 709.793L922.445 707.107L920.129 703.077L916.077 700.774L913.375 699.239L916.077 697.704L920.129 695.401L922.445 691.371L923.989 688.685L925.533 691.371L927.849 695.401L931.902 697.704L934.604 699.239L931.902 700.774Z" fill="#D9D9D9"/>
<path d="M757.445 628.44L729.269 613.089L713.83 585.072L698.39 613.089L670.214 628.44L698.39 643.792L713.83 671.808L729.269 643.792L757.445 628.44V628.44ZM721.549 629.975L717.496 632.278L715.18 636.308L713.637 638.994L712.093 636.308L709.777 632.278L705.724 629.975L703.022 628.44L705.724 626.905L709.777 624.602L712.093 620.572L713.637 617.886L715.18 620.572L717.496 624.602L721.549 626.905L724.251 628.44L721.549 629.975Z" fill="#D9D9D9"/>
</g>
<g clip-path="url(#clip2_723_8)">
<path d="M228.74 457.229L234 466.84L239.245 457.229L316.321 316.323L466.838 234.002L316.321 151.681L277.209 80.1772L234 1.16406L190.776 80.1772L151.679 151.681L1.16211 234.002L151.679 316.323L228.74 457.229Z" stroke="#292929" stroke-width="0.75" stroke-miterlimit="10"/>
<path d="M163.583 303.073L80.5027 257.644L24.4648 226.995L80.5027 196.347L163.583 150.917L199.715 84.8372L208.953 67.9409L239.661 11.7988L270.34 67.8962L279.593 84.8372L315.739 150.917L398.82 196.347L454.843 226.995L398.82 257.644L315.739 303.073L270.295 386.169L244.519 433.312L239.661 442.177L234.804 433.312L209.028 386.169L163.583 303.073Z" stroke="#292929" stroke-width="0.69" stroke-miterlimit="10"/>
<path d="M175.474 289.827L99.217 248.122L47.7832 219.992L99.217 191.861L175.474 150.142L208.655 89.485L217.133 73.9744L245.324 22.4512L273.484 73.9446L281.992 89.485L315.159 150.142L391.43 191.861L442.864 219.992L391.43 248.122L315.159 289.827L273.454 366.113L249.779 409.382L245.324 417.532L240.869 409.382L217.193 366.113L175.474 289.827Z" stroke="#292929" stroke-width="0.64" stroke-miterlimit="10"/>
<path d="M187.378 276.6L117.931 238.62L71.0859 212.993L117.931 187.38L187.378 149.386L217.595 94.1379L225.313 80.0278L250.985 33.0938L276.628 79.9832L284.375 94.1379L314.592 149.386L384.04 187.38L430.884 212.993L384.04 238.605L314.592 276.6L276.598 346.062L255.038 385.472L250.985 392.892L246.932 385.472L225.372 346.062L187.378 276.6Z" stroke="#292929" stroke-width="0.58" stroke-miterlimit="10"/>
<path d="M199.284 263.352L136.645 229.098L94.3896 205.988L136.645 182.879L199.284 148.624L226.535 98.7998L233.493 86.0606L256.648 43.7305L279.772 86.0308L286.76 98.7849L314.011 148.624L376.65 182.879L418.905 205.988L376.65 229.098L314.011 263.352L279.742 326.006L260.313 361.541L256.648 368.246L252.982 361.541L233.538 325.991L199.284 263.352Z" stroke="#292929" stroke-width="0.53" stroke-miterlimit="10"/>
<path d="M211.189 250.107L155.36 219.578L117.708 198.987L155.36 178.395L211.189 147.866L235.475 103.45L241.674 92.0959L262.31 54.3848L282.931 92.0661L289.144 103.45L313.431 147.866L369.26 178.395L406.911 198.987L369.26 219.578L313.431 250.107L282.901 305.952L265.573 337.628L262.31 343.588L259.047 337.628L241.718 305.937L211.189 250.107Z" stroke="#292929" stroke-width="0.47" stroke-miterlimit="10"/>
<path d="M223.078 236.875L174.073 210.07L141.011 191.982L174.073 173.894L223.078 147.089L244.415 108.097L249.868 98.1287L267.971 65.0215L286.074 98.1137L291.528 108.097L312.864 147.089L361.869 173.894L394.932 191.982L361.869 210.07L312.864 236.875L286.045 285.88L270.832 313.713L267.971 318.942L265.11 313.713L249.883 285.88L223.078 236.875Z" stroke="#292929" stroke-width="0.42" stroke-miterlimit="10"/>
<path d="M234.983 223.629L192.787 200.55L164.313 184.979L192.787 169.409L234.983 146.33L253.354 112.746L258.048 104.163L273.633 75.6602L289.218 104.148L293.911 112.746L312.283 146.33L354.479 169.409L382.952 184.979L354.479 200.55L312.283 223.629L289.203 265.825L276.091 289.784L273.633 294.299L271.159 289.784L258.062 265.825L234.983 223.629Z" stroke="#292929" stroke-width="0.37" stroke-miterlimit="10"/>
<path d="M246.888 210.386L211.501 191.031L187.617 177.979L211.501 164.927L246.888 145.572L262.28 117.411L266.228 110.2L279.295 86.3008L292.362 110.2L296.296 117.396L311.702 145.572L347.089 164.927L370.958 177.979L347.089 191.031L311.702 210.386L292.347 245.772L281.366 265.872L279.295 269.642L277.224 265.872L266.243 245.772L246.888 210.386Z" stroke="#292929" stroke-width="0.31" stroke-miterlimit="10"/>
<path d="M258.778 197.137L230.215 181.522L210.935 170.973L230.215 160.424L258.778 144.794L271.219 122.057L274.407 116.246L284.956 96.9512L295.505 116.231L298.679 122.042L311.12 144.794L339.698 160.424L358.978 170.973L339.698 181.522L311.12 197.137L295.505 225.715L286.625 241.94L284.956 244.995L283.288 241.94L274.407 225.715L258.778 197.137Z" stroke="#292929" stroke-width="0.26" stroke-miterlimit="10"/>
<path d="M248.929 155.941L270.683 144.036L282.588 122.283L290.619 107.592L298.65 122.283L310.555 144.036L332.308 155.941L346.999 163.972L332.308 172.003L310.555 183.908L298.65 205.662L290.619 220.353L282.588 205.662L270.683 183.908L248.929 172.003L234.238 163.972L248.929 155.941Z" stroke="#292929" stroke-width="0.2" stroke-miterlimit="10"/>
</g>
<defs>
<clipPath id="clip0_723_8">
<rect width="333" height="333" fill="white" transform="translate(1843 1136) rotate(-90)"/>
</clipPath>
<clipPath id="clip1_723_8">
<rect width="1872" height="297.818" fill="white" transform="translate(197 445)"/>
</clipPath>
<clipPath id="clip2_723_8">
<rect width="468" height="468" fill="white"/>
</clipPath>
</defs>
</svg>
