<svg width="260" height="374" viewBox="0 0 260 374" fill="none" xmlns="http://www.w3.org/2000/svg">
<mask id="mask0_611_1835" style="mask-type:alpha" maskUnits="userSpaceOnUse" x="0" y="0" width="260" height="374">
<rect width="260" height="374" fill="#D9D9D9"/>
</mask>
<g mask="url(#mask0_611_1835)">
<path d="M119.731 -1H-151.083V32.5094H119.731C164.898 32.5094 201.72 69.2677 201.72 114.499C201.72 132.209 196.051 148.518 186.431 161.96C179.678 171.452 170.951 179.415 160.821 185.276C170.887 191.137 179.615 199.101 186.431 208.593C195.987 221.971 201.72 238.343 201.72 256.053C201.72 301.221 164.962 338.043 119.731 338.043H-195.932V371.552H119.731C183.437 371.552 235.23 319.759 235.23 256.053C235.23 229.361 226.056 204.834 210.767 185.276C225.992 165.718 235.23 141.192 235.23 114.499C235.23 50.793 183.437 -1 119.731 -1Z" fill="#EFEFEF"/>
<path d="M179.292 256.042C179.292 242.409 174.641 229.859 166.869 219.794C155.975 205.651 138.902 196.477 119.663 196.477H-151.151V229.987H119.663C134.061 229.987 145.719 241.708 145.719 256.042C145.719 270.376 133.997 282.098 119.663 282.098H-196V315.608H119.663C152.535 315.608 179.292 288.851 179.292 255.979V256.042Z" fill="#EFEFEF"/>
<path d="M119.727 174.128C138.966 174.128 156.039 164.954 166.933 150.811C174.705 140.746 179.355 128.196 179.355 114.563C179.355 81.6905 152.599 54.9341 119.727 54.9341H-151.087V88.4431H119.727C134.124 88.4431 145.782 100.165 145.782 114.499C145.782 128.833 134.06 140.555 119.727 140.555H-151.087V174.064H119.727V174.128Z" fill="#EFEFEF"/>
</g>
</svg>
