<svg width="267" height="374" viewBox="0 0 267 374" fill="none" xmlns="http://www.w3.org/2000/svg">
<mask id="mask0_611_1830" style="mask-type:alpha" maskUnits="userSpaceOnUse" x="0" y="0" width="267" height="374">
<rect width="267" height="374" fill="#D9D9D9"/>
</mask>
<g mask="url(#mask0_611_1830)">
<path d="M130.361 142.279H-142.173V89.8488H201.011V56.1489H-175.81V175.916H130.424C175.847 175.916 212.796 212.865 212.796 258.288C212.796 303.71 175.847 340.659 130.424 340.659H-231.935V374.36H130.424C194.385 374.36 246.433 322.312 246.433 258.352C246.433 194.391 194.385 142.342 130.424 142.342L130.361 142.279Z" fill="#EFEFEF"/>
<path d="M190.243 258.264C190.243 225.265 163.359 198.38 130.359 198.38H-198.3V33.7007H201.009V0H-232V232.081H130.359C144.821 232.081 156.543 243.867 156.543 258.264C156.543 272.662 144.757 284.447 130.359 284.447H-232V318.147H130.359C163.359 318.147 190.243 291.264 190.243 258.264Z" fill="#EFEFEF"/>
</g>
</svg>
