<svg width="273" height="375" viewBox="0 0 273 375" fill="none" xmlns="http://www.w3.org/2000/svg">
<mask id="mask0_611_1834" style="mask-type:alpha" maskUnits="userSpaceOnUse" x="0" y="0" width="273" height="375">
<rect width="273" height="375" fill="#D9D9D9"/>
</mask>
<g mask="url(#mask0_611_1834)">
<path d="M227.022 1.52888V0H193.676V1.52888V193.603V227.175V249.472V283.046V342.228V372.489H227.022V342.228V283.046H227.212V193.603H227.022V1.52888Z" fill="#EFEFEF"/>
<path d="M138.182 1.52888V193.603H-95.1146L96.3571 1.52888H49.1536L-175.728 227.175H138.182H171.528V193.603V1.52888V0H138.182V1.52888Z" fill="#EFEFEF"/>
<path d="M-202.615 249.477C-207.108 249.477 -211.158 246.738 -212.866 242.533C-214.575 238.329 -213.625 233.55 -210.462 230.365L17.71 1.53345H-29.4936L-233.937 206.667C-246.655 219.408 -250.515 238.647 -243.618 255.402C-236.784 272.157 -220.586 283.05 -202.552 283.05H138.25V372.557H171.533V249.541H-202.552L-202.615 249.477Z" fill="#EFEFEF"/>
</g>
</svg>
