<svg width="280" height="374" viewBox="0 0 280 374" fill="none" xmlns="http://www.w3.org/2000/svg">
<mask id="mask0_611_1836" style="mask-type:alpha" maskUnits="userSpaceOnUse" x="0" y="0" width="280" height="374">
<rect width="280" height="374" fill="#D9D9D9"/>
</mask>
<g mask="url(#mask0_611_1836)">
<path d="M-207.286 258.377C-207.286 212.933 -170.303 175.886 -124.795 175.886H117.679C150.752 175.886 177.672 148.965 177.672 115.892C177.672 82.8187 150.752 55.8987 117.679 55.8987H-196.005V89.6128H117.679C132.164 89.6128 143.894 101.406 143.894 115.828C143.894 130.249 132.1 142.043 117.679 142.043H-124.795C-188.89 142.043 -241 194.153 -241 258.248V374.454H240.999V340.74H-207.286V258.248V258.377Z" fill="#EFEFEF"/>
<path d="M-151.009 258.348C-151.009 243.862 -139.215 232.133 -124.794 232.133H117.68C181.775 232.133 233.885 180.023 233.885 115.927C233.885 51.8319 181.775 -0.277832 117.68 -0.277832H-196.004V33.4365H117.68C163.124 33.4365 200.171 70.4196 200.171 115.927C200.171 161.435 163.188 198.418 117.68 198.418H-124.794C-157.867 198.418 -184.787 225.339 -184.787 258.412V318.405H241V284.691H-151.073V258.476L-151.009 258.348Z" fill="#EFEFEF"/>
</g>
</svg>
