<svg width="235" height="242" viewBox="0 0 235 242" fill="none" xmlns="http://www.w3.org/2000/svg">
<g clip-path="url(#clip0_25_25)">
<path d="M205.22 120.756C205.22 72.2198 165.874 32.8735 117.338 32.8735C68.8015 32.8735 29.4551 72.2198 29.4551 120.756C29.4551 169.292 68.8015 208.639 117.338 208.639C165.874 208.639 205.22 169.292 205.22 120.756Z" fill="#E4C000"/>
<path d="M39.5801 211.207L72.6768 227.518L107.364 239.6L178.295 222.781L226.925 168.025L232.949 94.5562L215.622 63.0162L195.114 30.4949L127.33 2.60972L91.0864 9.95325L55.3501 18.8873L7.53245 75.1314L2.18554 113.338L2.18554 148.161L39.5801 211.207Z" stroke="#969696" stroke-width="1.5" stroke-linejoin="round"/>
<path d="M44.1147 116.79L88.7174 189.955L171.222 170.496L178.566 84.8443L100.393 52.3568L44.1147 116.79Z" stroke="#969696" stroke-width="1.5" stroke-linejoin="round"/>
<path d="M72.6768 227.518L88.7175 189.954L20.4937 179.023L72.6768 227.518Z" stroke="#969696" stroke-width="1.5" stroke-linejoin="round"/>
<path d="M44.1148 116.789L2.18554 113.338L20.4936 179.023L44.1148 116.789Z" stroke="#969696" stroke-width="1.5" stroke-linejoin="round"/>
<path d="M91.0864 9.95246L100.393 52.3555L159.446 20.8493L91.0864 9.95246Z" stroke="#969696" stroke-width="1.5" stroke-linejoin="round"/>
<path d="M33.2856 50.4603L100.393 52.3554L44.1148 116.789L33.2856 50.4603Z" stroke="#969696" stroke-width="1.5" stroke-linejoin="round"/>
<path d="M141.408 231.512L171.222 170.496L201.713 196.385L141.408 231.512Z" stroke="#969696" stroke-width="1.5" stroke-linejoin="round"/>
<path d="M88.7175 189.955L141.408 231.512L72.6768 227.518L88.7175 189.955Z" stroke="#969696" stroke-width="1.5" stroke-linejoin="round"/>
<path d="M171.223 170.496L227.433 132.662L178.566 84.844L171.223 170.496Z" stroke="#969696" stroke-width="1.5" stroke-linejoin="round"/>
<path d="M159.446 20.8501L215.622 63.0162L178.566 84.8437L159.446 20.8501Z" stroke="#969696" stroke-width="1.5" stroke-linejoin="round"/>
<path d="M201.713 196.385L227.433 132.662L226.925 168.026L201.713 196.385Z" stroke="#969696" stroke-width="1.5" stroke-linejoin="round"/>
<path d="M159.446 20.8494L195.114 30.4941L127.331 2.609L159.446 20.8494Z" stroke="#969696" stroke-width="1.5" stroke-linejoin="round"/>
<path d="M33.2856 50.4609L91.0864 9.95302L55.3501 18.8871L33.2856 50.4609Z" stroke="#969696" stroke-width="1.5" stroke-linejoin="round"/>
<path d="M2.18555 113.338L33.2856 50.461L7.53245 75.1312L2.18555 113.338Z" stroke="#969696" stroke-width="1.5" stroke-linejoin="round"/>
<path d="M44.1147 116.791L116.027 124.27L100.393 52.357L44.1147 116.791Z" stroke="#969696" stroke-width="1.5" stroke-linejoin="round"/>
<path d="M171.222 170.496L116.027 124.269L178.566 84.844L171.222 170.496Z" stroke="#969696" stroke-width="1.5" stroke-linejoin="round"/>
<path d="M88.7173 189.955L116.027 124.269L171.222 170.496L88.7173 189.955Z" stroke="#969696" stroke-width="1.5" stroke-linejoin="round"/>
<path d="M100.393 52.357L178.566 84.8445L116.027 124.27L100.393 52.357Z" stroke="#969696" stroke-width="1.5" stroke-linejoin="round"/>
<path d="M227.433 132.662L215.622 63.0169L232.949 94.5569L227.433 132.662Z" stroke="#969696" stroke-width="1.5" stroke-linejoin="round"/>
</g>
<defs>
<clipPath id="clip0_25_25">
<rect width="240.374" height="234.147" fill="white" transform="translate(0.493652 241.291) rotate(-90)"/>
</clipPath>
</defs>
</svg>
