<svg width="206" height="206" viewBox="0 0 206 206" fill="none" xmlns="http://www.w3.org/2000/svg">
<path d="M9.61083 65.1727L9.61084 141.022C9.61084 171.724 34.5001 196.613 65.2026 196.613L141.051 196.613C171.754 196.613 196.643 171.724 196.643 141.022L196.643 65.1727C196.643 34.4703 171.754 9.58099 141.051 9.58099L65.2026 9.58099C34.5001 9.58099 9.61083 34.4703 9.61083 65.1727Z" fill="#E4C000"/>
<path d="M52.743 203.863L2.35938 203.863L2.35937 153.48L52.743 203.863Z" stroke="#969696" stroke-width="1.5" stroke-linejoin="round"/>
<path d="M52.743 153.48L52.743 203.863L2.35937 153.48L52.743 153.48Z" stroke="#969696" stroke-width="1.5" stroke-linejoin="round"/>
<path d="M52.743 153.479L2.35938 153.479L2.35937 103.095L52.743 153.479Z" stroke="#969696" stroke-width="1.5" stroke-linejoin="round"/>
<path d="M52.743 103.095L52.743 153.479L2.35937 103.095L52.743 103.095Z" stroke="#969696" stroke-width="1.5" stroke-linejoin="round"/>
<path d="M52.743 2.35661L2.35937 2.35661L2.35938 52.7402L52.743 2.35661Z" stroke="#969696" stroke-width="1.5" stroke-linejoin="round"/>
<path d="M52.743 52.7402L52.743 2.35661L2.35938 52.7402L52.743 52.7402Z" stroke="#969696" stroke-width="1.5" stroke-linejoin="round"/>
<path d="M52.743 52.7121L2.35937 52.7121L2.35938 103.096L52.743 52.7121Z" stroke="#969696" stroke-width="1.5" stroke-linejoin="round"/>
<path d="M52.743 103.096L52.743 52.7121L2.35938 103.096L52.743 103.096Z" stroke="#969696" stroke-width="1.5" stroke-linejoin="round"/>
<path d="M103.127 203.863L52.7432 203.863L52.7432 153.48L103.127 203.863Z" stroke="#969696" stroke-width="1.5" stroke-linejoin="round"/>
<path d="M103.127 153.48L103.127 203.863L52.7432 153.48L103.127 153.48Z" stroke="#969696" stroke-width="1.5" stroke-linejoin="round"/>
<path d="M103.126 153.479L52.7427 153.479L52.7427 103.095L103.126 153.479Z" stroke="#969696" stroke-width="1.5" stroke-linejoin="round"/>
<path d="M103.126 103.095L103.126 153.479L52.7427 103.095L103.126 103.095Z" stroke="#969696" stroke-width="1.5" stroke-linejoin="round"/>
<path d="M103.126 2.35661L52.7427 2.35661L52.7427 52.7402L103.126 2.35661Z" stroke="#969696" stroke-width="1.5" stroke-linejoin="round"/>
<path d="M103.126 52.7402L103.126 2.35661L52.7427 52.7402L103.126 52.7402Z" stroke="#969696" stroke-width="1.5" stroke-linejoin="round"/>
<path d="M103.126 52.7121L52.7427 52.7121L52.7427 103.096L103.126 52.7121Z" stroke="#969696" stroke-width="1.5" stroke-linejoin="round"/>
<path d="M103.126 103.096L103.126 52.7121L52.7427 103.096L103.126 103.096Z" stroke="#969696" stroke-width="1.5" stroke-linejoin="round"/>
<path d="M153.51 203.863L203.894 203.863L203.894 153.48L153.51 203.863Z" stroke="#969696" stroke-width="1.5" stroke-linejoin="round"/>
<path d="M153.51 153.48L153.51 203.863L203.894 153.48L153.51 153.48Z" stroke="#969696" stroke-width="1.5" stroke-linejoin="round"/>
<path d="M153.51 153.479L203.894 153.479L203.894 103.095L153.51 153.479Z" stroke="#969696" stroke-width="1.5" stroke-linejoin="round"/>
<path d="M153.51 103.095L153.51 153.479L203.894 103.095L153.51 103.095Z" stroke="#969696" stroke-width="1.5" stroke-linejoin="round"/>
<path d="M153.51 2.35661L203.894 2.35661L203.894 52.7402L153.51 2.35661Z" stroke="#969696" stroke-width="1.5" stroke-linejoin="round"/>
<path d="M153.51 52.7402L153.51 2.35661L203.894 52.7402L153.51 52.7402Z" stroke="#969696" stroke-width="1.5" stroke-linejoin="round"/>
<path d="M153.51 52.7121L203.894 52.7121L203.894 103.096L153.51 52.7121Z" stroke="#969696" stroke-width="1.5" stroke-linejoin="round"/>
<path d="M153.51 103.096L153.51 52.7121L203.894 103.096L153.51 103.096Z" stroke="#969696" stroke-width="1.5" stroke-linejoin="round"/>
<path d="M103.126 203.863L153.51 203.863L153.51 153.48L103.126 203.863Z" stroke="#969696" stroke-width="1.5" stroke-linejoin="round"/>
<path d="M103.126 153.48L103.126 203.863L153.51 153.48L103.126 153.48Z" stroke="#969696" stroke-width="1.5" stroke-linejoin="round"/>
<path d="M103.126 153.479L153.51 153.479L153.51 103.095L103.126 153.479Z" stroke="#969696" stroke-width="1.5" stroke-linejoin="round"/>
<path d="M103.126 103.095L103.126 153.479L153.51 103.095L103.126 103.095Z" stroke="#969696" stroke-width="1.5" stroke-linejoin="round"/>
<path d="M103.126 2.35661L153.51 2.35661L153.51 52.7402L103.126 2.35661Z" stroke="#969696" stroke-width="1.5" stroke-linejoin="round"/>
<path d="M103.126 52.7402L103.126 2.35661L153.51 52.7402L103.126 52.7402Z" stroke="#969696" stroke-width="1.5" stroke-linejoin="round"/>
<path d="M103.126 52.7121L153.51 52.7121L153.51 103.096L103.126 52.7121Z" stroke="#969696" stroke-width="1.5" stroke-linejoin="round"/>
<path d="M103.126 103.096L103.126 52.7121L153.51 103.096L103.126 103.096Z" stroke="#969696" stroke-width="1.5" stroke-linejoin="round"/>
</svg>
