<svg width="118" height="20" viewBox="0 0 118 20" fill="none" xmlns="http://www.w3.org/2000/svg">
<g clip-path="url(#clip0_342_225)">
<path d="M18.7331 6.04297H17.7427V18.4601H18.7331V6.04297Z" fill="#1A1A1A"/>
<path d="M20.7141 6.04297H19.7236V18.4601H20.7141V6.04297Z" fill="#1A1A1A"/>
<path d="M111.185 6.04297H108.214H101.74V7.03344H108.214H109.205H110.195H111.185H117.43V6.04297H111.185Z" fill="#1A1A1A"/>
<path d="M101.74 8.02344V9.02599H108.214V18.4596H109.205V9.02599V8.02344H108.214H101.74Z" fill="#1A1A1A"/>
<path d="M110.195 8.02344V9.02599V18.4596H111.186V9.02599H117.431V8.02344H111.186H110.195Z" fill="#1A1A1A"/>
<path d="M31.9354 6.04297H30.5343L24.3257 12.2515L30.5343 18.4601H31.9475L25.7268 12.2515L31.9354 6.04297Z" fill="#1A1A1A"/>
<path d="M29.1215 6.04297H27.7203L21.5117 12.2515L27.7324 18.4601H29.1335L22.9129 12.2515L29.1215 6.04297Z" fill="#1A1A1A"/>
<path d="M45.7179 8.6641L45.0173 9.37676L40.7293 13.6527L35.9219 18.4601H37.323L41.4299 14.3533L46.4185 9.37676L49.7523 6.04297H48.339L45.7179 8.6641Z" fill="#1A1A1A"/>
<path d="M53.6173 13.7369H61.6498C62.133 13.7369 62.5195 14.1234 62.5195 14.6066C62.5195 15.0897 62.133 15.4763 61.6498 15.4763H50.6218V16.4667H61.6498C62.6766 16.4667 63.51 15.6333 63.51 14.6066C63.51 13.5799 62.6766 12.7464 61.6498 12.7464H53.6173C52.0471 12.7464 50.7667 11.4661 50.7667 9.89579C50.7667 8.32553 52.0471 7.04516 53.6173 7.04516H64.5005V6.05469H53.6173C51.4914 6.05469 49.7642 7.78198 49.7642 9.90787C49.7642 12.0338 51.4914 13.7611 53.6173 13.7611V13.7369Z" fill="#1A1A1A"/>
<path d="M61.6497 10.7533H53.6172C53.134 10.7533 52.7475 10.3668 52.7475 9.8836C52.7475 9.40044 53.134 9.01391 53.6172 9.01391H64.5003V8.02344H53.6172C52.5905 8.02344 51.757 8.85688 51.757 9.8836C51.757 10.9103 52.5905 11.7438 53.6172 11.7438H61.6497C63.2199 11.7438 64.5003 13.0241 64.5003 14.5944C64.5003 16.1646 63.2199 17.445 61.6497 17.445H50.6216V18.4355H61.6497C63.7756 18.4355 65.5028 16.7082 65.5028 14.5823C65.5028 12.4564 63.7756 10.7291 61.6497 10.7291V10.7533Z" fill="#1A1A1A"/>
<path d="M79.3453 6.04333H68.9091H67.2422V18.4605H68.2327V7.04588H68.6554H70.2136H79.3332C80.9035 7.04588 82.1838 8.32625 82.1838 9.89651C82.1838 11.4668 80.9035 12.7471 79.3332 12.7471H70.2136H69.2231V18.4605H70.2136V13.7376H79.3332C81.4591 13.7376 83.1864 12.0103 83.1864 9.88443C83.1864 7.75854 81.4591 6.03125 79.3332 6.03125L79.3453 6.04333Z" fill="#1A1A1A"/>
<path d="M79.3454 11.7555C80.3721 11.7555 81.2056 10.922 81.2056 9.89531C81.2056 8.8686 80.3721 8.03516 79.3454 8.03516H70.2258H69.2354V11.7555H70.2258H79.3454ZM70.2258 9.02563H79.3454C79.8286 9.02563 80.2151 9.41216 80.2151 9.89531C80.2151 10.3785 79.8286 10.765 79.3454 10.765H70.2258V9.02563Z" fill="#1A1A1A"/>
<path d="M96.2803 8.02344H89.504C88.0786 8.02344 86.9312 9.18302 86.9312 10.5963V13.8817C86.9312 15.307 88.0907 16.4545 89.504 16.4545H96.2803C97.7056 16.4545 98.8531 15.295 98.8531 13.8817V10.5963C98.8531 9.17094 97.6935 8.02344 96.2803 8.02344ZM97.8626 13.8938C97.8626 14.7635 97.1499 15.4761 96.2803 15.4761H89.504C88.6343 15.4761 87.9216 14.7635 87.9216 13.8938V10.6083C87.9216 9.73865 88.6343 9.02599 89.504 9.02599H96.2803C97.1499 9.02599 97.8626 9.73865 97.8626 10.6083V13.8938Z" fill="#1A1A1A"/>
<path d="M96.2801 6.04297H89.5038C86.9914 6.04297 84.938 8.09639 84.938 10.6088V13.8943C84.938 16.4067 86.9914 18.4601 89.5038 18.4601H96.2801C98.7925 18.4601 100.846 16.4067 100.846 13.8943V10.6088C100.846 8.09639 98.7925 6.04297 96.2801 6.04297ZM99.8555 13.8943C99.8555 15.8632 98.249 17.4697 96.2801 17.4697H89.5038C87.535 17.4697 85.9285 15.8632 85.9285 13.8943V10.6088C85.9285 8.63994 87.535 7.03344 89.5038 7.03344H96.2801C98.249 7.03344 99.8555 8.63994 99.8555 10.6088V13.8943Z" fill="#1A1A1A"/>
<path d="M41.4295 11.551L44.3043 8.6641L45.017 7.96352L46.9375 6.04297H45.5364L44.3043 7.26294L41.4295 10.1377L37.3348 6.04297H35.9336L40.7289 10.8504L41.4295 11.551Z" fill="#1A1A1A"/>
<path d="M40.7292 12.2515L40.0287 11.551L34.5207 6.04297H33.1195L39.3281 12.2515L33.1074 18.4601H34.5086L40.0287 12.9521L40.7292 12.2515Z" fill="#1A1A1A"/>
<path d="M4.11783 13.7369H12.1503C12.6335 13.7369 13.02 14.1234 13.02 14.6066C13.02 15.0897 12.6335 15.4763 12.1503 15.4763H1.01354V16.4667H12.1503C13.177 16.4667 14.0105 15.6333 14.0105 14.6066C14.0105 13.5799 13.177 12.7464 12.1503 12.7464H4.11783C2.54757 12.7464 1.2672 11.4661 1.2672 9.89579C1.2672 8.32553 2.54757 7.04516 4.11783 7.04516H15.001V6.05469H4.11783C1.99194 6.05469 0.264648 7.78198 0.264648 9.90787C0.264648 12.0338 1.99194 13.7611 4.11783 13.7611V13.7369Z" fill="#1A1A1A"/>
<path d="M12.1505 10.7533H4.11796C3.6348 10.7533 3.24828 10.3668 3.24828 9.8836C3.24828 9.40044 3.6348 9.01391 4.11796 9.01391H15.0011V8.02344H4.11796C3.09125 8.02344 2.2578 8.85688 2.2578 9.8836C2.2578 10.9103 3.09125 11.7438 4.11796 11.7438H12.1505C13.7207 11.7438 15.0011 13.0241 15.0011 14.5944C15.0011 16.1646 13.7207 17.445 12.1505 17.445H1.01367V18.4355H12.1505C14.2764 18.4355 16.0036 16.7082 16.0036 14.5823C16.0036 12.4564 14.2764 10.7291 12.1505 10.7291V10.7533Z" fill="#1A1A1A"/>
<path d="M41.3692 6.04238L41.4296 6.15109L41.4899 6.04238L42.3959 4.38756L44.1594 3.42125L42.3959 2.45493L41.9369 1.62149L41.4296 0.691406L40.9222 1.62149L40.4632 2.45493L38.6997 3.42125L40.4632 4.38756L41.3692 6.04238ZM40.9464 3.32462L41.2 3.17967L41.345 2.92601L41.4416 2.75691L41.5383 2.92601L41.6832 3.17967L41.9369 3.32462L42.106 3.42125L41.9369 3.51788L41.6832 3.66283L41.5383 3.91649L41.4416 4.08559L41.345 3.91649L41.2 3.66283L40.9464 3.51788L40.7773 3.42125L40.9464 3.32462Z" fill="#1A1A1A"/>
<path d="M45.7782 13.9668L44.8119 15.7303L43.0483 16.6966L44.8119 17.663L45.7782 19.4265L46.7445 17.663L48.508 16.6966L46.7445 15.7303L45.7782 13.9668ZM46.2613 16.7933L46.0077 16.9382L45.8627 17.1919L45.7661 17.361L45.6695 17.1919L45.5245 16.9382L45.2709 16.7933L45.1018 16.6966L45.2709 16.6L45.5245 16.4551L45.6695 16.2014L45.7661 16.0323L45.8627 16.2014L46.0077 16.4551L46.2613 16.6L46.4304 16.6966L46.2613 16.7933Z" fill="#1A1A1A"/>
<path d="M35.342 12.2396L33.5785 11.2733L32.6122 9.50977L31.6458 11.2733L29.8823 12.2396L31.6458 13.2059L32.6122 14.9694L33.5785 13.2059L35.342 12.2396ZM33.0953 12.3362L32.8417 12.4812L32.6967 12.7348L32.6001 12.9039L32.5035 12.7348L32.3585 12.4812L32.1049 12.3362L31.9357 12.2396L32.1049 12.143L32.3585 11.998L32.5035 11.7444L32.6001 11.5753L32.6967 11.7444L32.8417 11.998L33.0953 12.143L33.2644 12.2396L33.0953 12.3362Z" fill="#1A1A1A"/>
</g>
<defs>
<clipPath id="clip0_342_225">
<rect width="117.166" height="18.7465" fill="white" transform="translate(0.264648 0.691406)"/>
</clipPath>
</defs>
</svg>
