<svg width="132" height="21" viewBox="0 0 132 21" fill="none" xmlns="http://www.w3.org/2000/svg">
<g clip-path="url(#clip0_2_165)">
<path d="M20.6881 5.99414H19.5786V19.9035H20.6881V5.99414Z" fill="white"/>
<path d="M22.9071 5.99414H21.7976V19.9035H22.9071V5.99414Z" fill="white"/>
<path d="M124.25 5.99414H120.922H113.669V7.10364H120.922H122.031H123.141H124.25H131.246V5.99414H124.25Z" fill="white"/>
<path d="M113.669 8.21289V9.33592H120.922V19.9032H122.031V9.33592V8.21289H120.922H113.669Z" fill="white"/>
<path d="M123.141 8.21289V9.33592V19.9032H124.25V9.33592H131.246V8.21289H124.25H123.141Z" fill="white"/>
<path d="M35.4768 5.99414H33.9073L26.9526 12.9488L33.9073 19.9035H35.4904L28.5222 12.9488L35.4768 5.99414Z" fill="white"/>
<path d="M32.3242 5.99414H30.7547L23.8 12.9488L30.7682 19.9035H32.3378L25.3696 12.9488L32.3242 5.99414Z" fill="white"/>
<path d="M50.9151 8.93025L50.1303 9.72855L45.327 14.5183L39.9419 19.9035H41.5114L46.1118 15.3031L51.6999 9.72855L55.4343 5.99414H53.8512L50.9151 8.93025Z" fill="white"/>
<path d="M59.7642 14.6132H68.762C69.3032 14.6132 69.7362 15.0462 69.7362 15.5874C69.7362 16.1286 69.3032 16.5616 68.762 16.5616H56.4087V17.6711H68.762C69.9121 17.6711 70.8457 16.7375 70.8457 15.5874C70.8457 14.4373 69.9121 13.5037 68.762 13.5037H59.7642C58.0053 13.5037 56.571 12.0695 56.571 10.3105C56.571 8.55154 58.0053 7.11731 59.7642 7.11731H71.9552V6.00781H59.7642C57.3829 6.00781 55.448 7.94267 55.448 10.324C55.448 12.7054 57.3829 14.6403 59.7642 14.6403V14.6132Z" fill="white"/>
<path d="M68.7618 11.2708H59.764C59.2228 11.2708 58.7898 10.8378 58.7898 10.2966C58.7898 9.75536 59.2228 9.32239 59.764 9.32239H71.955V8.21289H59.764C58.6139 8.21289 57.6803 9.14649 57.6803 10.2966C57.6803 11.4467 58.6139 12.3803 59.764 12.3803H68.7618C70.5207 12.3803 71.955 13.8145 71.955 15.5735C71.955 17.3324 70.5207 18.7667 68.7618 18.7667H56.4084V19.8762H68.7618C71.1431 19.8762 73.078 17.9413 73.078 15.5599C73.078 13.1786 71.1431 11.2437 68.7618 11.2437V11.2708Z" fill="white"/>
<path d="M88.5839 5.994H76.8936H75.0264V19.9033H76.1359V7.11703H76.6094H78.3549H88.5704C90.3293 7.11703 91.7636 8.55126 91.7636 10.3102C91.7636 12.0692 90.3293 13.5034 88.5704 13.5034H78.3549H77.2454V19.9033H78.3549V14.6129H88.5704C90.9517 14.6129 92.8866 12.6781 92.8866 10.2967C92.8866 7.91533 90.9517 5.98047 88.5704 5.98047L88.5839 5.994Z" fill="white"/>
<path d="M88.584 12.3939C89.7341 12.3939 90.6677 11.4603 90.6677 10.3103C90.6677 9.16017 89.7341 8.22656 88.584 8.22656H78.3685H77.259V12.3939H78.3685H88.584ZM78.3685 9.33606H88.584C89.1253 9.33606 89.5582 9.76904 89.5582 10.3103C89.5582 10.8515 89.1253 11.2844 88.584 11.2844H78.3685V9.33606Z" fill="white"/>
<path d="M107.554 8.21289H99.963C98.3664 8.21289 97.0811 9.51182 97.0811 11.0949V14.7752C97.0811 16.3718 98.38 17.6572 99.963 17.6572H107.554C109.15 17.6572 110.436 16.3582 110.436 14.7752V11.0949C110.436 9.49829 109.137 8.21289 107.554 8.21289ZM109.326 14.7887C109.326 15.7629 108.528 16.5612 107.554 16.5612H99.963C98.9888 16.5612 98.1906 15.7629 98.1906 14.7887V11.1084C98.1906 10.1342 98.9888 9.33592 99.963 9.33592H107.554C108.528 9.33592 109.326 10.1342 109.326 11.1084V14.7887Z" fill="white"/>
<path d="M107.554 5.99414H99.9632C97.1488 5.99414 94.8486 8.29432 94.8486 11.1087V14.7889C94.8486 17.6033 97.1488 19.9035 99.9632 19.9035H107.554C110.368 19.9035 112.668 17.6033 112.668 14.7889V11.1087C112.668 8.29432 110.368 5.99414 107.554 5.99414ZM111.559 14.7889C111.559 16.9944 109.759 18.794 107.554 18.794H99.9632C97.7577 18.794 95.9581 16.9944 95.9581 14.7889V11.1087C95.9581 8.90319 97.7577 7.10364 99.9632 7.10364H107.554C109.759 7.10364 111.559 8.90319 111.559 11.1087V14.7889Z" fill="white"/>
<path d="M46.1119 12.164L49.3322 8.93025L50.1305 8.14549L52.2818 5.99414H50.7123L49.3322 7.36072L46.1119 10.581L41.5251 5.99414H39.9556L45.3272 11.3793L46.1119 12.164Z" fill="white"/>
<path d="M45.327 12.9488L44.5423 12.164L38.3724 5.99414H36.8028L43.7575 12.9488L36.7893 19.9035H38.3588L44.5423 13.7336L45.327 12.9488Z" fill="white"/>
<path d="M4.31622 14.6132H13.314C13.8552 14.6132 14.2882 15.0462 14.2882 15.5874C14.2882 16.1286 13.8552 16.5616 13.314 16.5616H0.838889V17.6711H13.314C14.4641 17.6711 15.3977 16.7375 15.3977 15.5874C15.3977 14.4373 14.4641 13.5037 13.314 13.5037H4.31622C2.55726 13.5037 1.12303 12.0695 1.12303 10.3105C1.12303 8.55154 2.55726 7.11731 4.31622 7.11731H16.5072V6.00781H4.31622C1.93486 6.00781 0 7.94267 0 10.324C0 12.7054 1.93486 14.6403 4.31622 14.6403V14.6132Z" fill="white"/>
<path d="M13.314 11.2708H4.3162C3.77498 11.2708 3.342 10.8378 3.342 10.2966C3.342 9.75536 3.77498 9.32239 4.3162 9.32239H16.5072V8.21289H4.3162C3.16611 8.21289 2.23251 9.14649 2.23251 10.2966C2.23251 11.4467 3.16611 12.3803 4.3162 12.3803H13.314C15.0729 12.3803 16.5072 13.8145 16.5072 15.5735C16.5072 17.3324 15.0729 18.7667 13.314 18.7667H0.838867V19.8762H13.314C15.6953 19.8762 17.6302 17.9413 17.6302 15.5599C17.6302 13.1786 15.6953 11.2437 13.314 11.2437V11.2708Z" fill="white"/>
<path d="M46.0442 5.994L46.1118 6.11577L46.1795 5.994L47.1943 4.14033L49.1697 3.05789L47.1943 1.97545L46.6801 1.04185L46.1118 0L45.5436 1.04185L45.0294 1.97545L43.054 3.05789L45.0294 4.14033L46.0442 5.994ZM45.5706 2.94964L45.8548 2.78728L46.0171 2.50314L46.1254 2.31371L46.2336 2.50314L46.396 2.78728L46.6801 2.94964L46.8695 3.05789L46.6801 3.16613L46.396 3.3285L46.2336 3.61264L46.1254 3.80206L46.0171 3.61264L45.8548 3.3285L45.5706 3.16613L45.3812 3.05789L45.5706 2.94964Z" fill="white"/>
<path d="M50.9829 14.8691L49.9005 16.8446L47.925 17.927L49.9005 19.0095L50.9829 20.9849L52.0654 19.0095L54.0408 17.927L52.0654 16.8446L50.9829 14.8691ZM51.5242 18.0353L51.24 18.1976L51.0777 18.4818L50.9694 18.6712L50.8612 18.4818L50.6988 18.1976L50.4147 18.0353L50.2252 17.927L50.4147 17.8188L50.6988 17.6564L50.8612 17.3723L50.9694 17.1829L51.0777 17.3723L51.24 17.6564L51.5242 17.8188L51.7136 17.927L51.5242 18.0353Z" fill="white"/>
<path d="M39.2925 12.9348L37.3171 11.8524L36.2346 9.87695L35.1522 11.8524L33.1768 12.9348L35.1522 14.0173L36.2346 15.9927L37.3171 14.0173L39.2925 12.9348ZM36.7759 13.0431L36.4917 13.2054L36.3294 13.4896L36.2211 13.679L36.1129 13.4896L35.9505 13.2054L35.6664 13.0431L35.4769 12.9348L35.6664 12.8266L35.9505 12.6642L36.1129 12.3801L36.2211 12.1907L36.3294 12.3801L36.4917 12.6642L36.7759 12.8266L36.9653 12.9348L36.7759 13.0431Z" fill="white"/>
</g>
<defs>
<clipPath id="clip0_2_165">
<rect width="131.246" height="20.9993" fill="white"/>
</clipPath>
</defs>
</svg>
