<svg width="938" height="937" viewBox="0 0 938 937" fill="none" xmlns="http://www.w3.org/2000/svg">
<path d="M458.49 915.089L469.017 934.323L479.513 915.089L633.773 633.081L935.015 468.325L633.773 303.569L555.495 160.462L469.017 2.32617L382.508 160.462L304.261 303.569L3.01807 468.325L304.261 633.081L458.49 915.089Z" stroke="white" stroke-width="0.75" stroke-miterlimit="10"/>
<path d="M316.755 620.586L150.478 529.664L38.3247 468.324L150.478 406.984L316.755 316.063L389.069 183.811L407.557 149.995L469.016 37.6328L530.416 149.905L548.934 183.811L621.278 316.063L787.554 406.984L899.678 468.324L787.554 529.664L621.278 620.586L530.326 786.892L478.738 881.243L469.016 898.986L459.295 881.243L407.706 786.892L316.755 620.586Z" stroke="white" stroke-width="0.69" stroke-miterlimit="10"/>
<path d="M329.22 608.091L176.601 524.625L73.6616 468.324L176.601 412.024L329.22 328.528L395.629 207.13L412.597 176.088L469.016 72.9697L525.376 176.028L542.404 207.13L608.783 328.528L761.432 412.024L864.371 468.324L761.432 524.625L608.783 608.091L525.317 760.77L477.933 847.368L469.016 863.679L460.1 847.368L412.716 760.77L329.22 608.091Z" stroke="white" stroke-width="0.64" stroke-miterlimit="10"/>
<path d="M341.715 595.627L202.723 519.615L108.969 468.325L202.723 417.064L341.715 341.023L402.19 230.45L417.636 202.21L469.016 108.277L520.337 202.121L535.843 230.45L596.318 341.023L735.31 417.064L829.064 468.325L735.31 519.585L596.318 595.627L520.277 734.648L477.128 813.522L469.016 828.372L460.905 813.522L417.756 734.648L341.715 595.627Z" stroke="white" stroke-width="0.58" stroke-miterlimit="10"/>
<path d="M354.209 583.132L228.845 514.575L144.275 468.324L228.845 422.073L354.209 353.517L408.75 253.799L422.676 228.302L469.016 143.583L515.297 228.243L529.282 253.769L583.823 353.517L709.187 422.073L793.757 468.324L709.187 514.575L583.823 583.132L515.237 708.525L476.352 779.646L469.016 793.065L461.68 779.646L422.765 708.495L354.209 583.132Z" stroke="white" stroke-width="0.53" stroke-miterlimit="10"/>
<path d="M366.704 570.637L254.968 509.536L179.612 468.324L254.968 427.113L366.704 366.012L415.31 277.118L427.715 254.395L469.016 178.92L510.287 254.335L522.722 277.118L571.329 366.012L683.065 427.113L758.42 468.324L683.065 509.536L571.329 570.637L510.228 682.403L475.547 745.8L469.016 757.728L462.486 745.8L427.805 682.373L366.704 570.637Z" stroke="white" stroke-width="0.47" stroke-miterlimit="10"/>
<path d="M379.168 558.172L281.09 504.526L214.919 468.325L281.09 432.123L379.168 378.477L421.871 300.437L432.785 280.488L469.016 214.228L505.248 280.458L516.162 300.437L558.864 378.477L656.943 432.123L723.113 468.325L656.943 504.526L558.864 558.172L505.188 656.251L474.742 711.955L469.016 722.421L463.291 711.955L432.815 656.251L379.168 558.172Z" stroke="white" stroke-width="0.42" stroke-miterlimit="10"/>
<path d="M391.663 545.678L307.213 499.487L250.227 468.325L307.213 437.163L391.663 390.971L428.431 323.757L437.825 306.58L469.017 249.535L500.208 306.551L509.602 323.757L546.37 390.971L630.82 437.163L687.807 468.325L630.82 499.487L546.37 545.678L500.179 630.128L473.937 678.079L469.017 687.115L464.066 678.079L437.855 630.128L391.663 545.678Z" stroke="white" stroke-width="0.37" stroke-miterlimit="10"/>
<path d="M404.158 533.183L333.335 494.447L285.533 468.324L333.335 442.202L404.158 403.466L434.962 347.106L442.864 332.673L469.016 284.841L495.168 332.673L503.041 347.076L533.875 403.466L604.698 442.202L652.469 468.324L604.698 494.447L533.875 533.183L495.139 604.006L473.161 644.233L469.016 651.778L464.871 644.233L442.894 604.006L404.158 533.183Z" stroke="white" stroke-width="0.31" stroke-miterlimit="10"/>
<path d="M416.622 520.688L359.457 489.437L320.87 468.324L359.457 447.212L416.622 415.931L441.522 370.425L447.904 358.795L469.016 320.178L490.129 358.765L496.481 370.395L521.38 415.931L578.575 447.212L617.162 468.324L578.575 489.437L521.38 520.688L490.129 577.883L472.356 610.357L469.016 616.471L465.676 610.357L447.904 577.883L416.622 520.688Z" stroke="white" stroke-width="0.26" stroke-miterlimit="10"/>
<path d="M385.58 452.252L429.117 428.425L452.943 384.888L469.016 355.485L485.089 384.888L508.916 428.425L552.453 452.252L581.856 468.325L552.453 484.398L508.916 508.224L485.089 551.761L469.016 581.164L452.943 551.761L429.117 508.224L385.58 484.398L356.177 468.325L385.58 452.252Z" stroke="white" stroke-width="0.2" stroke-miterlimit="10"/>
</svg>
