<svg width="229" height="229" viewBox="0 0 229 229" fill="none" xmlns="http://www.w3.org/2000/svg">
<g clip-path="url(#clip0_251_131)">
<path d="M111.777 223.431L114.347 228.127L116.91 223.431L154.574 154.575L228.127 114.348L154.574 74.1205L135.462 39.1792L114.347 0.568359L93.2252 39.1792L74.12 74.1205L0.567871 114.348L74.12 154.575L111.777 223.431Z" stroke="white" stroke-width="0.75" stroke-miterlimit="10"/>
<path d="M79.9373 148.101L39.3387 125.901L11.9551 110.924L39.3387 95.9474L79.9373 73.7478L97.5936 41.4568L102.108 33.2002L117.114 5.76563L132.105 33.1784L136.627 41.4568L154.29 73.7478L194.889 95.9474L222.265 110.924L194.889 125.901L154.29 148.101L132.083 188.707L119.487 211.744L117.114 216.076L114.74 211.744L102.144 188.707L79.9373 148.101Z" stroke="white" stroke-width="0.69" stroke-miterlimit="10"/>
<path d="M85.7478 141.627L48.4839 121.248L23.3501 107.501L48.4839 93.7551L85.7478 73.3684L101.962 43.7277L106.105 36.1482L119.881 10.9707L133.642 36.1337L137.799 43.7277L154.007 73.3684L191.278 93.7551L216.412 107.501L191.278 121.248L154.007 141.627L133.627 178.906L122.058 200.05L119.881 204.032L117.704 200.05L106.134 178.906L85.7478 141.627Z" stroke="white" stroke-width="0.64" stroke-miterlimit="10"/>
<path d="M91.5651 135.164L57.6286 116.605L34.7373 104.082L57.6286 91.5661L91.5651 72.9997L106.331 46.0019L110.102 39.1069L122.647 16.1719L135.178 39.085L138.964 46.0019L153.73 72.9997L187.666 91.5661L210.558 104.082L187.666 116.598L153.73 135.164L135.163 169.108L124.628 188.366L122.647 191.992L120.667 188.366L110.132 169.108L91.5651 135.164Z" stroke="white" stroke-width="0.58" stroke-miterlimit="10"/>
<path d="M97.3829 128.69L66.7738 111.951L46.125 100.659L66.7738 89.3659L97.3829 72.627L110.7 48.2795L114.1 42.0543L125.415 21.3691L136.715 42.0398L140.129 48.2722L153.446 72.627L184.055 89.3659L204.704 100.659L184.055 111.951L153.446 128.69L136.7 159.307L127.206 176.672L125.415 179.948L123.623 176.672L114.122 159.299L97.3829 128.69Z" stroke="white" stroke-width="0.53" stroke-miterlimit="10"/>
<path d="M103.2 122.219L75.9185 107.3L57.5195 97.2378L75.9185 87.1755L103.2 72.2568L115.068 50.5523L118.097 45.0043L128.181 26.5762L138.258 44.9897L141.294 50.5523L153.162 72.2568L180.444 87.1755L198.843 97.2378L180.444 107.3L153.162 122.219L138.243 149.508L129.776 164.987L128.181 167.899L126.587 164.987L118.119 149.5L103.2 122.219Z" stroke="white" stroke-width="0.47" stroke-miterlimit="10"/>
<path d="M109.01 115.752L85.0632 102.653L68.9067 93.8144L85.0632 84.9753L109.01 71.8769L119.436 52.8227L122.101 47.9517L130.948 31.7734L139.794 47.9444L142.459 52.8227L152.885 71.8769L176.832 84.9753L192.989 93.8144L176.832 102.653L152.885 115.752L139.779 139.699L132.346 153.3L130.948 155.855L129.55 153.3L122.109 139.699L109.01 115.752Z" stroke="white" stroke-width="0.42" stroke-miterlimit="10"/>
<path d="M114.827 109.28L94.2078 98.0016L80.2939 90.393L94.2078 82.7844L114.827 71.5062L123.805 55.0949L126.098 50.9011L133.714 36.9727L141.33 50.8938L143.624 55.0949L152.601 71.5062L173.221 82.7844L187.135 90.393L173.221 98.0016L152.601 109.28L141.323 129.899L134.916 141.607L133.714 143.813L132.506 141.607L126.106 129.899L114.827 109.28Z" stroke="white" stroke-width="0.37" stroke-miterlimit="10"/>
<path d="M120.645 102.808L103.353 93.3497L91.6816 86.9715L103.353 80.5934L120.645 71.1355L128.166 57.3745L130.096 53.8505L136.481 42.1719L142.867 53.8505L144.789 57.3672L152.317 71.1355L169.61 80.5934L181.274 86.9715L169.61 93.3497L152.317 102.808L142.859 120.1L137.493 129.922L136.481 131.764L135.469 129.922L130.103 120.1L120.645 102.808Z" stroke="white" stroke-width="0.31" stroke-miterlimit="10"/>
<path d="M126.455 96.334L112.498 88.7036L103.076 83.5487L112.498 78.3938L126.455 70.7561L132.535 59.6453L134.093 56.8058L139.248 47.377L144.403 56.7985L145.954 59.6381L152.033 70.7561L165.998 78.3938L175.42 83.5487L165.998 88.7036L152.033 96.334L144.403 110.299L140.063 118.228L139.248 119.72L138.432 118.228L134.093 110.299L126.455 96.334Z" stroke="white" stroke-width="0.26" stroke-miterlimit="10"/>
<path d="M121.643 76.2028L132.273 70.3854L138.091 59.7552L142.015 52.5762L145.939 59.7552L151.757 70.3854L162.387 76.2028L169.566 80.1273L162.387 84.0517L151.757 89.8692L145.939 100.499L142.015 107.678L138.091 100.499L132.273 89.8692L121.643 84.0517L114.464 80.1273L121.643 76.2028Z" stroke="white" stroke-width="0.2" stroke-miterlimit="10"/>
</g>
<defs>
<clipPath id="clip0_251_131">
<rect width="228.695" height="228.695" fill="white"/>
</clipPath>
</defs>
</svg>
